{
	"asset":{
		"generator":"Khronos glTF Blender I/O v4.1.63",
		"version":"2.0"
	},
	"extensionsUsed":[
		"KHR_materials_emissive_strength"
	],
	"scene":0,
	"scenes":[
		{
			"name":"Scene",
			"nodes":[
				0,
				1,
				2,
				3,
				4,
				5,
				6,
				7,
				8,
				9,
				10
			]
		}
	],
	"nodes":[
		{
			"mesh":0,
			"name":"Grid",
			"rotation":[
				0,
				0,
				-0.7071068286895752,
				0.7071068286895752
			],
			"translation":[
				-2,
				-2,
				0
			],
			"scale":[
				1,
				1,
				5
			]
		},
		{
			"mesh":3,
			"name":"Grid",
			"rotation":[
				0,
				0,
				-0.7071068286895752,
				0.7071068286895752
			],
			"translation":[
				-2,
				2,
				0
			],
			"scale":[
				1,
				1,
				5
			]
		},
		{
			"mesh":1,
			"name":"Cube",
			"translation":[
				0,
				2,
				-2
			]
		},
		{
			"mesh":1,
			"name":"Cube.001",
			"translation":[
				0,
				2,
				2
			]
		},
		{
			"mesh":1,
			"name":"Cube.002",
			"translation":[
				0,
				-2,
				2
			]
		},
		{
			"mesh":1,
			"name":"Cube.003",
			"translation":[
				0,
				-2,
				-2
			]
		},
		{
			"mesh":2,
			"name":"Sphere",
			"translation":[
				0,
				2,
				0
			]
		},
		{
			"mesh":2,
			"name":"Sphere.001",
			"translation":[
				0,
				0,
				-2
			]
		},
		{
			"mesh":2,
			"name":"Sphere.002",
			"translation":[
				0,
				-2,
				0
			]
		},
		{
			"mesh":2,
			"name":"Sphere.003",
			"translation":[
				0,
				0,
				2
			]
		},
		{
			"camera":0,
			"name":"Camera",
			"rotation":[
				0.09614352881908417,
				0.5028799176216125,
				-0.056407127529382706,
				0.8571385741233826
			],
			"translation":[
				7.444032192230225,
				-1.7172284126281738,
				4.441226005554199
			]
		},
		{
			"mesh":4,
			"name":"Cylinder",
			"translation":[
				0,
				0,
				-4
			]
		},
		{
			"mesh":5,
			"name":"Icosphere",
			"translation":[
				0,
				0,
				4
			]
		}
	],
	"cameras":[
		{
			"name":"Camera.003",
			"perspective":{
				"aspectRatio":1.7777777777777777,
				"yfov":0.39959652046304894,
				"zfar":1000,
				"znear":0.10000000149011612
			},
			"type":"perspective"
		}
	],
	"materials":[
		{
			"doubleSided":true,
			"emissiveFactor":[
				1,
				1,
				1
			],
			"extensions":{
				"KHR_materials_emissive_strength":{
					"emissiveStrength":1.5
				}
			},
			"name":"Material.002",
			"pbrMetallicRoughness":{
				"baseColorFactor":[
					0.800000011920929,
					0.800000011920929,
					0.800000011920929,
					1
				],
				"metallicFactor":0,
				"roughnessFactor":0.5
			}
		},
		{
			"doubleSided":true,
			"name":"Material.003",
			"pbrMetallicRoughness":{
				"baseColorFactor":[
					0.0074340966530144215,
					0.09281502664089203,
					0.8009396195411682,
					1
				],
				"metallicFactor":0
			}
		},
		{
			"doubleSided":true,
			"name":"Material.004",
			"pbrMetallicRoughness":{
				"baseColorFactor":[
					0.8007664680480957,
					0.220378577709198,
					0,
					1
				],
				"roughnessFactor":0.25,
				"metallicFactor":0
			}
		},
		{
			"doubleSided":true,
			"emissiveFactor":[
				1,
				1,
				1
			],
			"extensions":{
				"KHR_materials_emissive_strength":{
					"emissiveStrength":1.600000023841858
				}
			},
			"name":"Material.005",
			"pbrMetallicRoughness":{
				"baseColorFactor":[
					0.800000011920929,
					0.800000011920929,
					0.800000011920929,
					1
				],
				"metallicFactor":0,
				"roughnessFactor":0.5
			}
		}
	],
	"meshes":[
		{
			"extras": {
				"subx": 2,
				"suby": 2
			},
			"name":"Grid.001",
			"primitives":[
				{
					"attributes":{
						"POSITION":0,
						"NORMAL":1
					},
					"indices":2,
					"material":0
				}
			]
		},
		{
			"name":"Cube.002",
			"primitives":[
				{
					"attributes":{
						"POSITION":3,
						"NORMAL":4
					},
					"indices":5,
					"material":1
				}
			]
		},
		{
			"name":"Sphere",
			"primitives":[
				{
					"attributes":{
						"POSITION":6,
						"NORMAL":7
					},
					"indices":8,
					"material":2
				}
			]
		},
		{
			"extras": {
				"subx": 2,
				"suby": 2
			},
			"name":"Grid.001",
			"primitives":[
				{
					"attributes":{
						"POSITION":0,
						"NORMAL":1
					},
					"indices":2,
					"material":0
				}
			]
		},
		{
			"extras": {
				"subx": 6,
				"suby": 2,
				"facenormals": 1
			},
			"name":"Cylinder",
			"primitives":[
				{
					"attributes":{
						"POSITION":0,
						"NORMAL":1
					},
					"indices":2,
					"material":2
				}
			]
		},
		{
			"extras": {
				"steps": 0,
				"facenormals": 1
			},
			"name":"Icosphere",
			"primitives":[
				{
					"attributes":{
						"POSITION":0,
						"NORMAL":1
					},
					"indices":2,
					"material":2
				}
			]
		}		
	],
	"accessors":[
		{
			"bufferView":0,
			"componentType":5126,
			"count":121,
			"max":[
				1,
				0,
				1
			],
			"min":[
				-1,
				0,
				-1
			],
			"type":"VEC3"
		},
		{
			"bufferView":1,
			"componentType":5126,
			"count":121,
			"type":"VEC3"
		},
		{
			"bufferView":2,
			"componentType":5123,
			"count":600,
			"type":"SCALAR"
		},
		{
			"bufferView":3,
			"componentType":5126,
			"count":24,
			"max":[
				1,
				1,
				1
			],
			"min":[
				-1,
				-1,
				-1
			],
			"type":"VEC3"
		},
		{
			"bufferView":4,
			"componentType":5126,
			"count":24,
			"type":"VEC3"
		},
		{
			"bufferView":5,
			"componentType":5123,
			"count":36,
			"type":"SCALAR"
		},
		{
			"bufferView":6,
			"componentType":5126,
			"count":482,
			"max":[
				0.9999997019767761,
				1,
				0.9999993443489075
			],
			"min":[
				-0.9999990463256836,
				-1,
				-1
			],
			"type":"VEC3"
		},
		{
			"bufferView":7,
			"componentType":5126,
			"count":482,
			"type":"VEC3"
		},
		{
			"bufferView":8,
			"componentType":5123,
			"count":2880,
			"type":"SCALAR"
		},
		{
			"bufferView":9,
			"componentType":5126,
			"count":1984,
			"max":[
				0.9999997019767761,
				1,
				0.9999993443489075
			],
			"min":[
				-0.9999990463256836,
				-1,
				-1
			],
			"type":"VEC3"
		},
		{
			"bufferView":10,
			"componentType":5126,
			"count":1984,
			"type":"VEC3"
		},
		{
			"bufferView":11,
			"componentType":5123,
			"count":2880,
			"type":"SCALAR"
		}
	],
	"bufferViews":[
		{
			"buffer":0,
			"byteLength":1452,
			"byteOffset":0,
			"target":34962
		},
		{
			"buffer":0,
			"byteLength":1452,
			"byteOffset":1452,
			"target":34962
		},
		{
			"buffer":0,
			"byteLength":1200,
			"byteOffset":2904,
			"target":34963
		},
		{
			"buffer":0,
			"byteLength":288,
			"byteOffset":4104,
			"target":34962
		},
		{
			"buffer":0,
			"byteLength":288,
			"byteOffset":4392,
			"target":34962
		},
		{
			"buffer":0,
			"byteLength":72,
			"byteOffset":4680,
			"target":34963
		},
		{
			"buffer":0,
			"byteLength":5784,
			"byteOffset":4752,
			"target":34962
		},
		{
			"buffer":0,
			"byteLength":5784,
			"byteOffset":10536,
			"target":34962
		},
		{
			"buffer":0,
			"byteLength":5760,
			"byteOffset":16320,
			"target":34963
		},
		{
			"buffer":0,
			"byteLength":23808,
			"byteOffset":22080,
			"target":34962
		},
		{
			"buffer":0,
			"byteLength":23808,
			"byteOffset":45888,
			"target":34962
		},
		{
			"buffer":0,
			"byteLength":5760,
			"byteOffset":69696,
			"target":34963
		}
	],
	"buffers":[
		{
			"byteLength":75456,
			"uri":"scene.bin"
		}
	]
}
