{
	"asset":{
		"generator":"Khronos glTF Blender I/O v4.1.63",
		"version":"2.0"
	},
	"extensionsUsed":[
		"KHR_materials_emissive_strength"
	],
	"scene":0,
	"scenes":[
		{
			"name":"Scene",
			"nodes":[
				0,
				1,
				2,
				3,
				4
			]
		}
	],
	"nodes":[
		{
			"camera":0,
			"name":"Camera",
			"translation":[
				0,
				0.3980083465576172,
				6.925789833068848
			]
		},
		{
			"mesh":0,
			"name":"Cylinder",
			"scale":[
				9.9761381149292,
				0.03640345484018326,
				9.9761381149292
			],
			"translation":[
				0,
				0.05920978635549545,
				0
			]
		},
		{
			"extras":{
				"babylonjs_GUID":"1e876d1f-225a-4592-8858-557103bad904",
				"MaxHandle":61
			},
			"mesh":1,
			"name":"Text002",
			"rotation":[
				0.7071068286895752,
				0,
				0,
				0.7071068286895752
			],
			"scale":[
				0.005910939536988735,
				0.005910939536988735,
				0.005910939536988735
			],
			"translation":[
				0,
				0.10929802805185318,
				0
			]
		},
		{
			"mesh":2,
			"name":"Plane",
			"scale":[
				17.90540313720703,
				9.557780265808105,
				17.42632484436035
			],
			"translation":[
				0.01651376113295555,
				3.8667819499969482,
				17.704160690307617
			]
		},
		{
			"extras":{
				"babylonjs_GUID":"1e876d1f-225a-4592-8858-557103bad904",
				"MaxHandle":61
			},
			"mesh":3,
			"name":"Text002.002",
			"rotation":[
				0.7071068286895752,
				0,
				0,
				0.7071068286895752
			],
			"scale":[
				0.009999999776482582,
				0.009999999776482582,
				0.009999999776482582
			],
			"translation":[
				0,
				3.871659278869629,
				16.571044921875
			]
		}
	],
	"cameras":[
		{
			"name":"Camera",
			"perspective":{
				"aspectRatio":1.7777777777777777,
				"yfov":0.39959652046304894,
				"zfar":100,
				"znear":0.10000000149011612
			},
			"type":"perspective"
		}
	],
	"materials":[
		{
			"doubleSided":true,
			"name":"f",
			"pbrMetallicRoughness":{
				"baseColorFactor":[
					0.03274917975068092,
					0.03274917975068092,
					0.03274917975068092,
					1
				],
				"metallicFactor":0.5492228269577026,
				"roughnessFactor":0.0803108811378479
			}
		},
		{
			"doubleSided":true,
			"emissiveFactor":[
				1,
				1,
				1
			],
			"extensions":{
				"KHR_materials_emissive_strength":{
					"emissiveStrength":2
				}
			},
			"name":"Material.001",
			"pbrMetallicRoughness":{
				"baseColorFactor":[
					0.800000011920929,
					0.800000011920929,
					0.800000011920929,
					1
				],
				"metallicFactor":0,
				"roughnessFactor":0.5
			}
		}
	],
	"meshes":[
		{
			"name":"Cylinder",
			"primitives":[
				{
					"attributes":{
						"POSITION":0,
						"NORMAL":1
					},
					"indices":2,
					"material":0
				}
			]
		},
		{
			"name":"Mesh.004",
			"primitives":[
				{
					"attributes":{
						"POSITION":3,
						"NORMAL":4
					},
					"indices":5,
					"material":1
				}
			]
		},
		{
			"name":"Plane",
			"primitives":[
				{
					"attributes":{
						"POSITION":6,
						"NORMAL":7
					},
					"indices":8,
					"material":0
				}
			]
		},
		{
			"name":"Mesh.001",
			"primitives":[
				{
					"attributes":{
						"POSITION":9,
						"NORMAL":10
					},
					"indices":11,
					"material":1
				}
			]
		}
	],
	"accessors":[
		{
			"bufferView":0,
			"componentType":5126,
			"count":192,
			"max":[
				1,
				1,
				1
			],
			"min":[
				-1,
				-1,
				-1
			],
			"type":"VEC3"
		},
		{
			"bufferView":1,
			"componentType":5126,
			"count":192,
			"type":"VEC3"
		},
		{
			"bufferView":2,
			"componentType":5123,
			"count":372,
			"type":"SCALAR"
		},
		{
			"bufferView":3,
			"componentType":5126,
			"count":594,
			"max":[
				685.9171752929688,
				0,
				1.1937531232833862
			],
			"min":[
				-685.9171752929688,
				0,
				-56.59383773803711
			],
			"type":"VEC3"
		},
		{
			"bufferView":4,
			"componentType":5126,
			"count":594,
			"type":"VEC3"
		},
		{
			"bufferView":5,
			"componentType":5123,
			"count":594,
			"type":"SCALAR"
		},
		{
			"bufferView":6,
			"componentType":5126,
			"count":4,
			"max":[
				1,
				0,
				1
			],
			"min":[
				-1,
				0,
				-1
			],
			"type":"VEC3"
		},
		{
			"bufferView":7,
			"componentType":5126,
			"count":4,
			"type":"VEC3"
		},
		{
			"bufferView":8,
			"componentType":5123,
			"count":6,
			"type":"SCALAR"
		},
		{
			"bufferView":9,
			"componentType":5126,
			"count":666,
			"max":[
				792.8910522460938,
				0,
				1.1937531232833862
			],
			"min":[
				-792.8909912109375,
				0,
				-56.59383773803711
			],
			"type":"VEC3"
		},
		{
			"bufferView":10,
			"componentType":5126,
			"count":666,
			"type":"VEC3"
		},
		{
			"bufferView":11,
			"componentType":5123,
			"count":666,
			"type":"SCALAR"
		}
	],
	"bufferViews":[
		{
			"buffer":0,
			"byteLength":2304,
			"byteOffset":0,
			"target":34962
		},
		{
			"buffer":0,
			"byteLength":2304,
			"byteOffset":2304,
			"target":34962
		},
		{
			"buffer":0,
			"byteLength":744,
			"byteOffset":4608,
			"target":34963
		},
		{
			"buffer":0,
			"byteLength":7128,
			"byteOffset":5352,
			"target":34962
		},
		{
			"buffer":0,
			"byteLength":7128,
			"byteOffset":12480,
			"target":34962
		},
		{
			"buffer":0,
			"byteLength":1188,
			"byteOffset":19608,
			"target":34963
		},
		{
			"buffer":0,
			"byteLength":48,
			"byteOffset":20796,
			"target":34962
		},
		{
			"buffer":0,
			"byteLength":48,
			"byteOffset":20844,
			"target":34962
		},
		{
			"buffer":0,
			"byteLength":12,
			"byteOffset":20892,
			"target":34963
		},
		{
			"buffer":0,
			"byteLength":7992,
			"byteOffset":20904,
			"target":34962
		},
		{
			"buffer":0,
			"byteLength":7992,
			"byteOffset":28896,
			"target":34962
		},
		{
			"buffer":0,
			"byteLength":1332,
			"byteOffset":36888,
			"target":34963
		}
	],
	"buffers":[
		{
			"byteLength":38220,
			"uri":"end.bin"
		}
	]
}
