{
	"asset":{
		"generator":"Khronos glTF Blender I/O v4.1.63",
		"version":"2.0"
	},
	"extensionsUsed":[
		"KHR_materials_emissive_strength"
	],
	"scene":0,
	"scenes":[
		{
			"extras":{
				"bgcol":[
					0.4390000104904175,
					0.0,
					0.4390000104904175
				]
			},
			"name":"Scene",
			"nodes":[
				0,
				1,
				2,
				3,
				4,
				5,
				6,
				7,
				8,
				9,
				10,
				11,
				12,
				13,
				14,
				15,
				16,
				17
			]
		}
	],
	"nodes":[
		{
			"camera":0,
			"name":"Camera",
			"rotation":[
				0,
				-1,
				0,
				1.7422431168451756e-15
			],
			"scale":[
				23.048959732055664,
				23.04895782470703,
				23.04895782470703
			],
			"translation":[
				0,
				14.43804931640625,
				-50.83409881591797
			]
		},
		{
			"mesh":0,
			"name":"Cube",
			"rotation":[
				-1,
				0,
				0,
				7.549790126404332e-08
			],
			"scale":[
				91.77745819091797,
				1.9506510496139526,
				5.914588451385498
			],
			"translation":[
				-5.558996690524509e-06,
				20.8385009765625,
				-0.6109848022460938
			]
		},
		{
			"mesh":1,
			"name":"Cylinder",
			"rotation":[
				0,
				1,
				0,
				0
			],
			"scale":[
				-70.99707794189453,
				-0.30747658014297485,
				-70.99707794189453
			],
			"translation":[
				-1.1347949504852295,
				9.157283782958984,
				0.07009867578744888
			]
		},
		{
			"mesh":2,
			"name":"Cube.001",
			"rotation":[
				-1,
				0,
				0,
				7.549790126404332e-08
			],
			"scale":[
				85.35890197753906,
				0.5096483826637268,
				5.500943660736084
			],
			"translation":[
				1.1095209629274905e-05,
				18.37820053100586,
				-0.33234184980392456
			]
		},
		{
			"mesh":0,
			"name":"Cube.002",
			"rotation":[
				-1,
				0,
				0,
				7.549790126404332e-08
			],
			"scale":[
				91.77745819091797,
				0.8988587260246277,
				5.914588451385498
			],
			"translation":[
				1.117322244681418e-05,
				16.969694137573242,
				-0.6109851598739624
			]
		},
		{
			"mesh":3,
			"name":"Cube.017",
			"rotation":[
				-1,
				0,
				0,
				1.9470718370939721e-07
			],
			"scale":[
				85.35890197753906,
				0.4413028657436371,
				5.500943660736084
			],
			"translation":[
				1.1095209629274905e-05,
				15.629528999328613,
				-0.3323422074317932
			]
		},
		{
			"mesh":0,
			"name":"Cube.018",
			"rotation":[
				-1,
				0,
				0,
				1.9470718370939721e-07
			],
			"scale":[
				91.77745819091797,
				1.1128226518630981,
				5.914588451385498
			],
			"translation":[
				1.1173220627824776e-05,
				14.075404167175293,
				-0.3323424458503723
			]
		},
		{
			"mesh":4,
			"name":"Cube.033",
			"rotation":[
				-1,
				0,
				0,
				1.9470718370939721e-07
			],
			"scale":[
				85.35890197753906,
				0.5216435790061951,
				5.500943660736084
			],
			"translation":[
				7.982803253980819e-06,
				12.440936088562012,
				-0.33234262466430664
			]
		},
		{
			"mesh":0,
			"name":"Cube.034",
			"rotation":[
				-1,
				0,
				0,
				1.9470718370939721e-07
			],
			"scale":[
				91.77745819091797,
				1.2832214832305908,
				5.914588451385498
			],
			"translation":[
				9.499999578110874e-06,
				10.63607120513916,
				-0.6109861731529236
			]
		},
		{
			"mesh":0,
			"name":"Cube.003",
			"rotation":[
				-1,
				0,
				0,
				7.549790126404332e-08
			],
			"scale":[
				91.77745819091797,
				1.9506510496139526,
				5.914588451385498
			],
			"translation":[
				-2.5003289920277894e-05,
				31.70836067199707,
				-0.6109824180603027
			]
		},
		{
			"mesh":3,
			"name":"Cube.004",
			"rotation":[
				-1,
				0,
				0,
				7.549790126404332e-08
			],
			"scale":[
				85.35890197753906,
				0.5096483826637268,
				5.500943660736084
			],
			"translation":[
				-8.349084964720532e-06,
				29.248058319091797,
				-0.33233946561813354
			]
		},
		{
			"mesh":0,
			"name":"Cube.005",
			"rotation":[
				-1,
				0,
				0,
				7.549790126404332e-08
			],
			"scale":[
				91.77745819091797,
				0.8988587260246277,
				5.914588451385498
			],
			"translation":[
				-8.271072147181258e-06,
				27.83955192565918,
				-0.6109827756881714
			]
		},
		{
			"mesh":2,
			"name":"Cube.006",
			"rotation":[
				-1,
				0,
				0,
				1.9470718370939721e-07
			],
			"scale":[
				85.35890197753906,
				0.4413028657436371,
				5.500943660736084
			],
			"translation":[
				-8.349084964720532e-06,
				23.230457305908203,
				-0.3323398232460022
			]
		},
		{
			"mesh":0,
			"name":"Cube.007",
			"rotation":[
				-1,
				0,
				0,
				1.9470718370939721e-07
			],
			"scale":[
				91.77745819091797,
				1.1128226518630981,
				5.914588451385498
			],
			"translation":[
				-8.271073966170661e-06,
				24.94526481628418,
				-0.3323400616645813
			]
		},
		{
			"mesh":4,
			"name":"Cube.008",
			"rotation":[
				-1,
				0,
				0,
				7.549790126404332e-08
			],
			"scale":[
				85.35890197753906,
				0.5096483826637268,
				5.500943660736084
			],
			"translation":[
				-8.349084964720532e-06,
				26.56773567199707,
				-0.33233946561813354
			]
		},
		{
			"extras":{
				"babylonjs_GUID":"1e876d1f-225a-4592-8858-557103bad904",
				"MaxHandle":61
			},
			"mesh":5,
			"name":"Text002.001",
			"rotation":[
				0.7071068286895752,
				0,
				0,
				0.7071068286895752
			],
			"scale":[
				0.07314746826887131,
				0.07314746826887131,
				0.07314746826887131
			]
		},
		{
			"extras":{
				"babylonjs_GUID":"1e876d1f-225a-4592-8858-557103bad904",
				"MaxHandle":61
			},
			"mesh":6,
			"name":"Text002.002",
			"rotation":[
				0,
				0.7071068286895752,
				-0.7071068286895752,
				5.338509012631221e-08
			],
			"scale":[
				0.05802656337618828,
				0.05802656337618828,
				0.05802656337618828
			],
			"translation":[
				0,
				15.51319694519043,
				-15.36410903930664
			]
		},
		{
			"mesh":7,
			"name":"Plane",
			"rotation":[
				-0.7071068286895752,
				0,
				0,
				0.7071068286895752
			],
			"scale":[
				-75.99658966064453,
				-12.033040046691895,
				-12.033040046691895
			],
			"translation":[
				-1.134796142578125,
				19.22943878173828,
				8.63836669921875
			]
		}
	],
	"cameras":[
		{
			"name":"Camera",
			"perspective":{
				"aspectRatio":1.7777777777777777,
				"yfov":0.6509917361266737,
				"zfar":100,
				"znear":0.10000000149011612
			},
			"type":"perspective"
		}
	],
	"materials":[
		{
			"doubleSided":true,
			"name":"b.002",
			"pbrMetallicRoughness":{
				"baseColorFactor":[
					0.010657946579158306,
					0,
					0.016619335860013962,
					1
				],
				"metallicFactor":0,
				"roughnessFactor":0.5
			}
		},
		{
			"doubleSided":true,
			"name":"f",
			"pbrMetallicRoughness":{
				"baseColorFactor":[
					0,
					0,
					0,
					1
				],
				"metallicFactor":0,
				"roughnessFactor":0.17357513308525085
			}
		},
		{
			"doubleSided":true,
			"emissiveFactor":[
				1,
				0.0027559101581573486,
				0
			],
			"extensions":{
				"KHR_materials_emissive_strength":{
					"emissiveStrength":1.5
				}
			},
			"name":"e1.002",
			"pbrMetallicRoughness":{
				"baseColorFactor":[
					0.800000011920929,
					0.800000011920929,
					0.800000011920929,
					1
				],
				"metallicFactor":0,
				"roughnessFactor":0.5
			}
		},
		{
			"doubleSided":true,
			"emissiveFactor":[
				1,
				0,
				0.7802219390869141
			],
			"extensions":{
				"KHR_materials_emissive_strength":{
					"emissiveStrength":1.5
				}
			},
			"name":"e2.002",
			"pbrMetallicRoughness":{
				"baseColorFactor":[
					0.800000011920929,
					0.800000011920929,
					0.800000011920929,
					1
				],
				"metallicFactor":0,
				"roughnessFactor":0.5
			}
		},
		{
			"doubleSided":true,
			"emissiveFactor":[
				0.010713210329413414,
				0.1847531646490097,
				1
			],
			"extensions":{
				"KHR_materials_emissive_strength":{
					"emissiveStrength":1.5
				}
			},
			"name":"e1.004",
			"pbrMetallicRoughness":{
				"baseColorFactor":[
					0.800000011920929,
					0.800000011920929,
					0.800000011920929,
					1
				],
				"metallicFactor":0,
				"roughnessFactor":0.5
			}
		},
		{
			"doubleSided":true,
			"emissiveFactor":[
				1,
				1,
				1
			],
			"extensions":{
				"KHR_materials_emissive_strength":{
					"emissiveStrength":1.5
				}
			},
			"name":"Material.002",
			"pbrMetallicRoughness":{
				"baseColorFactor":[
					0.800000011920929,
					0.800000011920929,
					0.800000011920929,
					1
				],
				"metallicFactor":0,
				"roughnessFactor":0.5
			}
		}
	],
	"meshes":[
		{
			"name":"Cube.009",
			"primitives":[
				{
					"attributes":{
						"POSITION":0,
						"NORMAL":1
					},
					"indices":2,
					"material":0
				}
			]
		},
		{
			"name":"Cylinder",
			"primitives":[
				{
					"attributes":{
						"POSITION":3,
						"NORMAL":4
					},
					"indices":5,
					"material":1
				}
			]
		},
		{
			"name":"Cube.002",
			"primitives":[
				{
					"attributes":{
						"POSITION":6,
						"NORMAL":7
					},
					"indices":2,
					"material":2
				}
			]
		},
		{
			"name":"Cube.006",
			"primitives":[
				{
					"attributes":{
						"POSITION":8,
						"NORMAL":9
					},
					"indices":2,
					"material":3
				}
			]
		},
		{
			"name":"Cube.010",
			"primitives":[
				{
					"attributes":{
						"POSITION":10,
						"NORMAL":11
					},
					"indices":2,
					"material":4
				}
			]
		},
		{
			"name":"Mesh.004",
			"primitives":[
				{
					"attributes":{
						"POSITION":12,
						"NORMAL":13
					},
					"indices":14
				}
			]
		},
		{
			"name":"Mesh.005",
			"primitives":[
				{
					"attributes":{
						"POSITION":15,
						"NORMAL":16
					},
					"indices":14,
					"material":5
				}
			]
		},
		{
			"name":"Plane",
			"primitives":[
				{
					"attributes":{
						"POSITION":17,
						"NORMAL":18
					},
					"indices":19,
					"material":1
				}
			]
		}
	],
	"accessors":[
		{
			"bufferView":0,
			"componentType":5126,
			"count":24,
			"max":[
				1,
				1,
				1
			],
			"min":[
				-1,
				-1,
				-1
			],
			"type":"VEC3"
		},
		{
			"bufferView":1,
			"componentType":5126,
			"count":24,
			"type":"VEC3"
		},
		{
			"bufferView":2,
			"componentType":5123,
			"count":36,
			"type":"SCALAR"
		},
		{
			"bufferView":3,
			"componentType":5126,
			"count":192,
			"max":[
				1,
				1,
				1
			],
			"min":[
				-1,
				-1,
				-1
			],
			"type":"VEC3"
		},
		{
			"bufferView":4,
			"componentType":5126,
			"count":192,
			"type":"VEC3"
		},
		{
			"bufferView":5,
			"componentType":5123,
			"count":372,
			"type":"SCALAR"
		},
		{
			"bufferView":6,
			"componentType":5126,
			"count":24,
			"max":[
				1,
				1,
				1
			],
			"min":[
				-1,
				-1,
				-1
			],
			"type":"VEC3"
		},
		{
			"bufferView":7,
			"componentType":5126,
			"count":24,
			"type":"VEC3"
		},
		{
			"bufferView":8,
			"componentType":5126,
			"count":24,
			"max":[
				1,
				1,
				1
			],
			"min":[
				-1,
				-1,
				-1
			],
			"type":"VEC3"
		},
		{
			"bufferView":9,
			"componentType":5126,
			"count":24,
			"type":"VEC3"
		},
		{
			"bufferView":10,
			"componentType":5126,
			"count":24,
			"max":[
				1,
				1,
				1
			],
			"min":[
				-1,
				-1,
				-1
			],
			"type":"VEC3"
		},
		{
			"bufferView":11,
			"componentType":5126,
			"count":24,
			"type":"VEC3"
		},
		{
			"bufferView":12,
			"componentType":5126,
			"count":501,
			"max":[
				201.38232421875,
				0,
				1.0843781232833862
			],
			"min":[
				-201.38233947753906,
				0,
				-56.393836975097656
			],
			"type":"VEC3"
		},
		{
			"bufferView":13,
			"componentType":5126,
			"count":501,
			"type":"VEC3"
		},
		{
			"bufferView":14,
			"componentType":5123,
			"count":501,
			"type":"SCALAR"
		},
		{
			"bufferView":15,
			"componentType":5126,
			"count":501,
			"max":[
				201.38232421875,
				0,
				1.0843781232833862
			],
			"min":[
				-201.38233947753906,
				0,
				-56.393836975097656
			],
			"type":"VEC3"
		},
		{
			"bufferView":16,
			"componentType":5126,
			"count":501,
			"type":"VEC3"
		},
		{
			"bufferView":17,
			"componentType":5126,
			"count":4,
			"max":[
				1,
				0,
				1
			],
			"min":[
				-1,
				0,
				-1
			],
			"type":"VEC3"
		},
		{
			"bufferView":18,
			"componentType":5126,
			"count":4,
			"type":"VEC3"
		},
		{
			"bufferView":19,
			"componentType":5123,
			"count":6,
			"type":"SCALAR"
		}
	],
	"bufferViews":[
		{
			"buffer":0,
			"byteLength":288,
			"byteOffset":0,
			"target":34962
		},
		{
			"buffer":0,
			"byteLength":288,
			"byteOffset":288,
			"target":34962
		},
		{
			"buffer":0,
			"byteLength":72,
			"byteOffset":576,
			"target":34963
		},
		{
			"buffer":0,
			"byteLength":2304,
			"byteOffset":648,
			"target":34962
		},
		{
			"buffer":0,
			"byteLength":2304,
			"byteOffset":2952,
			"target":34962
		},
		{
			"buffer":0,
			"byteLength":744,
			"byteOffset":5256,
			"target":34963
		},
		{
			"buffer":0,
			"byteLength":288,
			"byteOffset":6000,
			"target":34962
		},
		{
			"buffer":0,
			"byteLength":288,
			"byteOffset":6288,
			"target":34962
		},
		{
			"buffer":0,
			"byteLength":288,
			"byteOffset":6576,
			"target":34962
		},
		{
			"buffer":0,
			"byteLength":288,
			"byteOffset":6864,
			"target":34962
		},
		{
			"buffer":0,
			"byteLength":288,
			"byteOffset":7152,
			"target":34962
		},
		{
			"buffer":0,
			"byteLength":288,
			"byteOffset":7440,
			"target":34962
		},
		{
			"buffer":0,
			"byteLength":6012,
			"byteOffset":7728,
			"target":34962
		},
		{
			"buffer":0,
			"byteLength":6012,
			"byteOffset":13740,
			"target":34962
		},
		{
			"buffer":0,
			"byteLength":1002,
			"byteOffset":19752,
			"target":34963
		},
		{
			"buffer":0,
			"byteLength":6012,
			"byteOffset":20756,
			"target":34962
		},
		{
			"buffer":0,
			"byteLength":6012,
			"byteOffset":26768,
			"target":34962
		},
		{
			"buffer":0,
			"byteLength":48,
			"byteOffset":32780,
			"target":34962
		},
		{
			"buffer":0,
			"byteLength":48,
			"byteOffset":32828,
			"target":34962
		},
		{
			"buffer":0,
			"byteLength":12,
			"byteOffset":32876,
			"target":34963
		}
	],
	"buffers":[
		{
			"byteLength":32888,
			"uri":"good_1.bin"
		}
	]
}
