{
	"asset":{
		"generator":"Khronos glTF Blender I/O v4.1.63",
		"version":"2.0"
	},
	"extensionsUsed":[
		"KHR_materials_emissive_strength",
		"KHR_materials_transmission"
	],
	"scene":0,
	"scenes":[
		{
			"extras":{
				"bgcol":[
					0.6779999732971191,
					0.0,
					0.37299999594688416
				]
			},
			"name":"Scene",
			"nodes":[
				0,
				1,
				2,
				3,
				4,
				5,
				6,
				7,
				8,
				9,
				10,
				11,
				12,
				13,
				14,
				15,
				16,
				17,
				18,
				19,
				20,
				21,
				22,
				23,
				24,
				25,
				26,
				27,
				28,
				29,
				30,
				31,
				32,
				33,
				34,
				35,
				36,
				37
			]
		}
	],
	"nodes":[
		{
			"camera":0,
			"name":"Camera",
			"rotation":[
				0.17858466506004333,
				0.265532910823822,
				-0.047372907400131226,
				0.9462324380874634
			],
			"scale":[
				9.077899932861328,
				9.077901840209961,
				9.077901840209961
			],
			"translation":[
				20.444164276123047,
				10.436136245727539,
				38.940982818603516
			]
		},
		{
			"mesh":0,
			"name":"Cylinder",
			"rotation":[
				0,
				1,
				0,
				0
			],
			"scale":[
				-54.88347244262695,
				-0.23769120872020721,
				-54.88347244262695
			],
			"translation":[
				-1.1347949504852295,
				9.157283782958984,
				0.07009867578744888
			]
		},
		{
			"mesh":1,
			"name":"Cube",
			"scale":[
				2.209798812866211,
				12.17607593536377,
				5.292754173278809
			],
			"translation":[
				0,
				21.5710506439209,
				0
			]
		},
		{
			"mesh":1,
			"name":"Cube.002",
			"scale":[
				2.209798812866211,
				12.17607593536377,
				5.292754173278809
			],
			"translation":[
				14.4825439453125,
				21.5710506439209,
				0
			]
		},
		{
			"mesh":1,
			"name":"Cube.003",
			"scale":[
				2.209798812866211,
				12.17607593536377,
				5.292754173278809
			],
			"translation":[
				28.965085983276367,
				21.5710506439209,
				0
			]
		},
		{
			"mesh":2,
			"name":"Cube.009",
			"rotation":[
				1,
				0,
				0,
				7.549790126404332e-08
			],
			"scale":[
				0.15079252421855927,
				9.304802894592285,
				0.15079252421855927
			],
			"translation":[
				-38.421142578125,
				38.257347106933594,
				-8.080842018127441
			]
		},
		{
			"mesh":2,
			"name":"Cube.008",
			"rotation":[
				1,
				0,
				0,
				7.549790126404332e-08
			],
			"scale":[
				0.15079252421855927,
				9.304794311523438,
				0.15079252421855927
			],
			"translation":[
				-20.113143920898438,
				38.101444244384766,
				-8.080843925476074
			]
		},
		{
			"mesh":2,
			"name":"Cube.007",
			"rotation":[
				0.7071068286895752,
				-0.7071068286895752,
				0,
				5.338509012631221e-08
			],
			"scale":[
				0.15079252421855927,
				9.304794311523438,
				0.15079252421855927
			],
			"translation":[
				-29.26714324951172,
				28.8017520904541,
				-8.080842018127441
			]
		},
		{
			"mesh":2,
			"name":"Cube.006",
			"rotation":[
				0.7071068286895752,
				-0.7071068286895752,
				0,
				5.338509012631221e-08
			],
			"scale":[
				0.15079252421855927,
				9.304794311523438,
				0.15079252421855927
			],
			"translation":[
				-29.26714324951172,
				47.55703353881836,
				-8.080843925476074
			]
		},
		{
			"mesh":2,
			"name":"Cube.005",
			"rotation":[
				1,
				0,
				0,
				7.549790126404332e-08
			],
			"scale":[
				0.15079252421855927,
				9.304794311523438,
				0.15079252421855927
			],
			"translation":[
				-29.25446128845215,
				38.17938995361328,
				-8.080842018127441
			]
		},
		{
			"mesh":2,
			"name":"Cube.004",
			"rotation":[
				0.7071068286895752,
				-0.7071068286895752,
				0,
				5.338509012631221e-08
			],
			"scale":[
				0.15079252421855927,
				9.131828308105469,
				0.15079252421855927
			],
			"translation":[
				-29.231552124023438,
				38.257347106933594,
				-8.080842018127441
			]
		},
		{
			"mesh":3,
			"name":"Torus",
			"rotation":[
				0,
				0.7071068286895752,
				-0.7071068286895752,
				5.338508302088485e-08
			],
			"scale":[
				-14.219892501831055,
				-14.219892501831055,
				-14.219892501831055
			],
			"translation":[
				-8.868460655212402,
				28.061006546020508,
				10.372631072998047
			]
		},
		{
			"mesh":2,
			"name":"Cube.011",
			"rotation":[
				1,
				0,
				0,
				7.549790126404332e-08
			],
			"scale":[
				0.15079252421855927,
				9.304794311523438,
				0.15079252421855927
			],
			"translation":[
				-1.8051414489746094,
				38.101444244384766,
				-8.080846786499023
			]
		},
		{
			"mesh":2,
			"name":"Cube.012",
			"rotation":[
				0.7071068286895752,
				-0.7071068286895752,
				0,
				5.338509012631221e-08
			],
			"scale":[
				0.15079252421855927,
				9.304794311523438,
				0.15079252421855927
			],
			"translation":[
				-10.959141731262207,
				28.8017520904541,
				-8.080842018127441
			]
		},
		{
			"mesh":2,
			"name":"Cube.013",
			"rotation":[
				0.7071068286895752,
				-0.7071068286895752,
				0,
				5.338509012631221e-08
			],
			"scale":[
				0.15079252421855927,
				9.304794311523438,
				0.15079252421855927
			],
			"translation":[
				-10.959141731262207,
				47.55703353881836,
				-8.080846786499023
			]
		},
		{
			"mesh":2,
			"name":"Cube.014",
			"rotation":[
				1,
				0,
				0,
				7.549790126404332e-08
			],
			"scale":[
				0.15079252421855927,
				9.304794311523438,
				0.15079252421855927
			],
			"translation":[
				-10.946457862854004,
				38.17938995361328,
				-8.080843925476074
			]
		},
		{
			"mesh":2,
			"name":"Cube.015",
			"rotation":[
				0.7071068286895752,
				-0.7071068286895752,
				0,
				5.338509012631221e-08
			],
			"scale":[
				0.15079252421855927,
				9.131828308105469,
				0.15079252421855927
			],
			"translation":[
				-10.923548698425293,
				38.257347106933594,
				-8.080843925476074
			]
		},
		{
			"mesh":2,
			"name":"Cube.010",
			"rotation":[
				1,
				0,
				0,
				7.549790126404332e-08
			],
			"scale":[
				0.15079252421855927,
				9.304802894592285,
				0.15079252421855927
			],
			"translation":[
				-38.421142578125,
				19.502071380615234,
				-8.080839157104492
			]
		},
		{
			"mesh":2,
			"name":"Cube.016",
			"rotation":[
				1,
				0,
				0,
				7.549790126404332e-08
			],
			"scale":[
				0.15079252421855927,
				9.304794311523438,
				0.15079252421855927
			],
			"translation":[
				-20.113143920898438,
				19.346160888671875,
				-8.080842018127441
			]
		},
		{
			"mesh":2,
			"name":"Cube.017",
			"rotation":[
				0.7071068286895752,
				-0.7071068286895752,
				0,
				5.338509012631221e-08
			],
			"scale":[
				0.15079252421855927,
				9.304794311523438,
				0.15079252421855927
			],
			"translation":[
				-29.26714324951172,
				10.046470642089844,
				-8.080839157104492
			]
		},
		{
			"mesh":2,
			"name":"Cube.018",
			"rotation":[
				1,
				0,
				0,
				7.549790126404332e-08
			],
			"scale":[
				0.15079252421855927,
				9.304794311523438,
				0.15079252421855927
			],
			"translation":[
				-29.25446128845215,
				19.42410659790039,
				-8.080839157104492
			]
		},
		{
			"mesh":2,
			"name":"Cube.019",
			"rotation":[
				0.7071068286895752,
				-0.7071068286895752,
				0,
				5.338509012631221e-08
			],
			"scale":[
				0.15079252421855927,
				9.131828308105469,
				0.15079252421855927
			],
			"translation":[
				-29.231552124023438,
				19.502071380615234,
				-8.080839157104492
			]
		},
		{
			"mesh":2,
			"name":"Cube.020",
			"rotation":[
				1,
				0,
				0,
				7.549790126404332e-08
			],
			"scale":[
				0.15079252421855927,
				9.304794311523438,
				0.15079252421855927
			],
			"translation":[
				-1.8051414489746094,
				19.346166610717773,
				-8.080842018127441
			]
		},
		{
			"mesh":2,
			"name":"Cube.021",
			"rotation":[
				0.7071068286895752,
				-0.7071068286895752,
				0,
				5.338509012631221e-08
			],
			"scale":[
				0.15079252421855927,
				9.304794311523438,
				0.15079252421855927
			],
			"translation":[
				-10.959141731262207,
				10.046470642089844,
				-8.080842018127441
			]
		},
		{
			"mesh":2,
			"name":"Cube.022",
			"rotation":[
				1,
				0,
				0,
				7.549790126404332e-08
			],
			"scale":[
				0.15079252421855927,
				9.304794311523438,
				0.15079252421855927
			],
			"translation":[
				-10.946457862854004,
				19.42411231994629,
				-8.080842018127441
			]
		},
		{
			"mesh":2,
			"name":"Cube.023",
			"rotation":[
				0.7071068286895752,
				-0.7071068286895752,
				0,
				5.338509012631221e-08
			],
			"scale":[
				0.15079252421855927,
				9.131828308105469,
				0.15079252421855927
			],
			"translation":[
				-10.923548698425293,
				19.502071380615234,
				-8.080842018127441
			]
		},
		{
			"mesh":4,
			"name":"Sphere",
			"scale":[
				38.859127044677734,
				38.859127044677734,
				38.859127044677734
			],
			"translation":[
				0,
				67.73296356201172,
				-42.95682144165039
			]
		},
		{
			"mesh":4,
			"name":"Sphere.001",
			"scale":[
				61.089412689208984,
				61.089412689208984,
				61.089412689208984
			],
			"translation":[
				117.89639282226562,
				37.75847625732422,
				6.8115081787109375
			]
		},
		{
			"mesh":4,
			"name":"Sphere.002",
			"scale":[
				88.0625228881836,
				88.0625228881836,
				88.0625228881836
			],
			"translation":[
				-104.13472747802734,
				-2.8564109802246094,
				-150.5316619873047
			]
		},
		{
			"mesh":4,
			"name":"Sphere.003",
			"scale":[
				28.048717498779297,
				28.048717498779297,
				28.048717498779297
			],
			"translation":[
				64.73385620117188,
				20.645023345947266,
				-80.14459991455078
			]
		},
		{
			"mesh":4,
			"name":"Sphere.004",
			"scale":[
				53.56822967529297,
				53.56822967529297,
				53.56822967529297
			],
			"translation":[
				-114.14222717285156,
				20.645021438598633,
				9.633979797363281
			]
		},
		{
			"mesh":4,
			"name":"Sphere.005",
			"scale":[
				48.03440475463867,
				48.03440475463867,
				48.03440475463867
			],
			"translation":[
				-36.969085693359375,
				37.75847625732422,
				141.2708740234375
			]
		},
		{
			"mesh":4,
			"name":"Sphere.006",
			"scale":[
				50.97411346435547,
				50.97411346435547,
				50.97411346435547
			],
			"translation":[
				77.31111145019531,
				67.73296356201172,
				140.17677307128906
			]
		},
		{
			"mesh":5,
			"name":"Sphere.007",
			"scale":[
				74.80533599853516,
				74.80533599853516,
				74.80533599853516
			],
			"translation":[
				105.68745422363281,
				49.53675842285156,
				-147.05735778808594
			]
		},
		{
			"mesh":6,
			"name":"Sphere.008",
			"scale":[
				103.76435852050781,
				103.76435852050781,
				103.76435852050781
			],
			"translation":[
				-287.5697326660156,
				49.53675842285156,
				-162.544677734375
			]
		},
		{
			"mesh":7,
			"name":"Cube.001",
			"scale":[
				5.957411289215088,
				12.17607593536377,
				1.8789403438568115
			],
			"translation":[
				22.210391998291016,
				20.907787322998047,
				0
			]
		},
		{
			"mesh":7,
			"name":"Cube.000",
			"scale":[
				5.957411289215088,
				12.17607593536377,
				1.8789403438568115
			],
			"translation":[
				6.955813407897949,
				20.907787322998047,
				0
			]
		},
		{
			"extras":{
				"babylonjs_GUID":"1e876d1f-225a-4592-8858-557103bad904",
				"MaxHandle":61
			},
			"mesh":8,
			"name":"Text002",
			"rotation":[
				0,
				0.7071068286895752,
				-0.7071067690849304,
				5.338509012631221e-08
			],
			"scale":[
				0.45936253666877747,
				0.45936253666877747,
				0.45936253666877747
			],
			"translation":[
				17.06206703186035,
				9.48304271697998,
				5.931677341461182
			]
		}
	],
	"cameras":[
		{
			"name":"Camera",
			"perspective":{
				"aspectRatio":1.7777777777777777,
				"yfov":1.1874993173003463,
				"zfar":100,
				"znear":0.10000000149011612
			},
			"type":"perspective"
		}
	],
	"materials":[
		{
			"doubleSided":true,
			"name":"f",
			"pbrMetallicRoughness":{
				"baseColorFactor":[
					0.0019775223918259144,
					0.0040383776649832726,
					0.003987903706729412,
					1
				],
				"metallicFactor":0,
				"roughnessFactor":0.17357513308525085
			}
		},
		{
			"doubleSided":true,
			"name":"b1",
			"pbrMetallicRoughness":{
				"baseColorFactor":[
					0,
					0.21536394953727722,
					0.29519182443618774,
					1
				],
				"metallicFactor":0,
				"roughnessFactor":0.12176164984703064
			}
		},
		{
			"doubleSided":true,
			"emissiveFactor":[
				0.4153604507446289,
				0.788666844367981,
				1
			],
			"extensions":{
				"KHR_materials_emissive_strength":{
					"emissiveStrength":1.5
				}
			},
			"name":"e2",
			"pbrMetallicRoughness":{
				"baseColorFactor":[
					0.800000011920929,
					0.800000011920929,
					0.800000011920929,
					1
				],
				"metallicFactor":0,
				"roughnessFactor":0.5
			}
		},
		{
			"doubleSided":true,
			"extensions":{
				"KHR_materials_transmission":{
					"transmissionFactor":1
				}
			},
			"name":"refr2",
			"pbrMetallicRoughness":{
				"metallicFactor":0,
				"roughnessFactor":0.09585492312908173
			}
		},
		{
			"doubleSided":true,
			"extensions":{
				"KHR_materials_transmission":{
					"transmissionFactor":1
				}
			},
			"name":"refl1",
			"pbrMetallicRoughness":{
				"baseColorFactor":[
					0.07665704190731049,
					0.07665704190731049,
					0.07665704190731049,
					1
				],
				"roughnessFactor":0.21052631735801697
			}
		},
		{
			"doubleSided":true,
			"emissiveFactor":[
				0,
				1,
				0.22780022025108337
			],
			"extensions":{
				"KHR_materials_emissive_strength":{
					"emissiveStrength":1.5
				}
			},
			"name":"e3",
			"pbrMetallicRoughness":{
				"baseColorFactor":[
					0.800000011920929,
					0.800000011920929,
					0.800000011920929,
					1
				],
				"metallicFactor":0,
				"roughnessFactor":0.5
			}
		},
		{
			"doubleSided":true,
			"emissiveFactor":[
				1,
				0.007647681515663862,
				0.09924711287021637
			],
			"extensions":{
				"KHR_materials_emissive_strength":{
					"emissiveStrength":1.5
				}
			},
			"name":"e4",
			"pbrMetallicRoughness":{
				"baseColorFactor":[
					0.800000011920929,
					0.800000011920929,
					0.800000011920929,
					1
				],
				"metallicFactor":0,
				"roughnessFactor":0.5
			}
		},
		{
			"doubleSided":true,
			"emissiveFactor":[
				0.950996845706585,
				1,
				0
			],
			"extensions":{
				"KHR_materials_emissive_strength":{
					"emissiveStrength":1.6021840572357178
				}
			},
			"name":"e1",
			"pbrMetallicRoughness":{
				"baseColorFactor":[
					0.7618361711502075,
					0.8010924458503723,
					0,
					1
				],
				"metallicFactor":0,
				"roughnessFactor":0.5
			}
		},
		{
			"doubleSided":true,
			"emissiveFactor":[
				1,
				1,
				1
			],
			"extensions":{
				"KHR_materials_emissive_strength":{
					"emissiveStrength":1.5
				}
			},
			"name":"Material.001",
			"pbrMetallicRoughness":{
				"baseColorFactor":[
					0.800000011920929,
					0.800000011920929,
					0.800000011920929,
					1
				],
				"metallicFactor":0,
				"roughnessFactor":0.5
			}
		}
	],
	"meshes":[
		{
			"name":"Cylinder.001",
			"primitives":[
				{
					"attributes":{
						"POSITION":0,
						"NORMAL":1
					},
					"indices":2,
					"material":0
				}
			]
		},
		{
			"name":"Cube.004",
			"primitives":[
				{
					"attributes":{
						"POSITION":3,
						"NORMAL":4
					},
					"indices":5,
					"material":1
				}
			]
		},
		{
			"name":"Cube.028",
			"primitives":[
				{
					"attributes":{
						"POSITION":6,
						"NORMAL":7
					},
					"indices":5,
					"material":2
				}
			]
		},
		{
			"extras":{
				"suby":48,
				"subx":24
			},
			"name":"Torus.001",
			"primitives":[
				{
					"attributes":{
						"POSITION":8,
						"NORMAL":9
					},
					"indices":10,
					"material":3
				}
			]
		},
		{
			"name":"Sphere.005",
			"primitives":[
				{
					"attributes":{
						"POSITION":11,
						"NORMAL":12
					},
					"indices":13,
					"material":4
				}
			]
		},
		{
			"name":"Sphere.002",
			"primitives":[
				{
					"attributes":{
						"POSITION":14,
						"NORMAL":15
					},
					"indices":16,
					"material":5
				}
			]
		},
		{
			"name":"Sphere.003",
			"primitives":[
				{
					"attributes":{
						"POSITION":17,
						"NORMAL":18
					},
					"indices":16,
					"material":6
				}
			]
		},
		{
			"name":"Cube.002",
			"primitives":[
				{
					"attributes":{
						"POSITION":19,
						"NORMAL":20
					},
					"indices":5,
					"material":7
				}
			]
		},
		{
			"extras":{
				"share":3
			},
			"name":"Mesh",
			"primitives":[
				{
					"attributes":{
						"POSITION":21,
						"NORMAL":22
					},
					"indices":23,
					"material":8
				}
			]
		}
	],
	"accessors":[
		{
			"bufferView":0,
			"componentType":5126,
			"count":192,
			"max":[
				1,
				1,
				1
			],
			"min":[
				-1,
				-1,
				-1
			],
			"type":"VEC3"
		},
		{
			"bufferView":1,
			"componentType":5126,
			"count":192,
			"type":"VEC3"
		},
		{
			"bufferView":2,
			"componentType":5123,
			"count":372,
			"type":"SCALAR"
		},
		{
			"bufferView":3,
			"componentType":5126,
			"count":24,
			"max":[
				1,
				1,
				1
			],
			"min":[
				-1,
				-1,
				-1
			],
			"type":"VEC3"
		},
		{
			"bufferView":4,
			"componentType":5126,
			"count":24,
			"type":"VEC3"
		},
		{
			"bufferView":5,
			"componentType":5123,
			"count":36,
			"type":"SCALAR"
		},
		{
			"bufferView":6,
			"componentType":5126,
			"count":24,
			"max":[
				1,
				1,
				1
			],
			"min":[
				-1,
				-1,
				-1
			],
			"type":"VEC3"
		},
		{
			"bufferView":7,
			"componentType":5126,
			"count":24,
			"type":"VEC3"
		},
		{
			"bufferView":8,
			"componentType":5126,
			"count":2304,
			"max":[
				1.25,
				0.25,
				1.25
			],
			"min":[
				-1.25,
				-0.25,
				-1.25
			],
			"type":"VEC3"
		},
		{
			"bufferView":9,
			"componentType":5126,
			"count":2304,
			"type":"VEC3"
		},
		{
			"bufferView":10,
			"componentType":5123,
			"count":3456,
			"type":"SCALAR"
		},
		{
			"bufferView":11,
			"componentType":5126,
			"count":1984,
			"max":[
				0.9999997019767761,
				1,
				0.9999993443489075
			],
			"min":[
				-0.9999990463256836,
				-1,
				-1
			],
			"type":"VEC3"
		},
		{
			"bufferView":12,
			"componentType":5126,
			"count":1984,
			"type":"VEC3"
		},
		{
			"bufferView":13,
			"componentType":5123,
			"count":2880,
			"type":"SCALAR"
		},
		{
			"bufferView":14,
			"componentType":5126,
			"count":1984,
			"max":[
				0.9999997019767761,
				1,
				0.9999993443489075
			],
			"min":[
				-0.9999990463256836,
				-1,
				-1
			],
			"type":"VEC3"
		},
		{
			"bufferView":15,
			"componentType":5126,
			"count":1984,
			"type":"VEC3"
		},
		{
			"bufferView":16,
			"componentType":5123,
			"count":2880,
			"type":"SCALAR"
		},
		{
			"bufferView":17,
			"componentType":5126,
			"count":1984,
			"max":[
				0.9999997019767761,
				1,
				0.9999993443489075
			],
			"min":[
				-0.9999990463256836,
				-1,
				-1
			],
			"type":"VEC3"
		},
		{
			"bufferView":18,
			"componentType":5126,
			"count":1984,
			"type":"VEC3"
		},
		{
			"bufferView":19,
			"componentType":5126,
			"count":24,
			"max":[
				1,
				1,
				1
			],
			"min":[
				-1,
				-1,
				-1
			],
			"type":"VEC3"
		},
		{
			"bufferView":20,
			"componentType":5126,
			"count":24,
			"type":"VEC3"
		},
		{
			"bufferView":21,
			"componentType":5126,
			"count":120,
			"max":[
				21.6299991607666,
				0.4330126941204071,
				0.49375176429748535
			],
			"min":[
				-21.17148208618164,
				-0.43301278352737427,
				-55.6938362121582
			],
			"type":"VEC3"
		},
		{
			"bufferView":22,
			"componentType":5126,
			"count":120,
			"type":"VEC3"
		},
		{
			"bufferView":23,
			"componentType":5123,
			"count":198,
			"type":"SCALAR"
		}
	],
	"bufferViews":[
		{
			"buffer":0,
			"byteLength":2304,
			"byteOffset":0,
			"target":34962
		},
		{
			"buffer":0,
			"byteLength":2304,
			"byteOffset":2304,
			"target":34962
		},
		{
			"buffer":0,
			"byteLength":744,
			"byteOffset":4608,
			"target":34963
		},
		{
			"buffer":0,
			"byteLength":288,
			"byteOffset":5352,
			"target":34962
		},
		{
			"buffer":0,
			"byteLength":288,
			"byteOffset":5640,
			"target":34962
		},
		{
			"buffer":0,
			"byteLength":72,
			"byteOffset":5928,
			"target":34963
		},
		{
			"buffer":0,
			"byteLength":288,
			"byteOffset":6000,
			"target":34962
		},
		{
			"buffer":0,
			"byteLength":288,
			"byteOffset":6288,
			"target":34962
		},
		{
			"buffer":0,
			"byteLength":27648,
			"byteOffset":6576,
			"target":34962
		},
		{
			"buffer":0,
			"byteLength":27648,
			"byteOffset":34224,
			"target":34962
		},
		{
			"buffer":0,
			"byteLength":6912,
			"byteOffset":61872,
			"target":34963
		},
		{
			"buffer":0,
			"byteLength":23808,
			"byteOffset":68784,
			"target":34962
		},
		{
			"buffer":0,
			"byteLength":23808,
			"byteOffset":92592,
			"target":34962
		},
		{
			"buffer":0,
			"byteLength":5760,
			"byteOffset":116400,
			"target":34963
		},
		{
			"buffer":0,
			"byteLength":23808,
			"byteOffset":122160,
			"target":34962
		},
		{
			"buffer":0,
			"byteLength":23808,
			"byteOffset":145968,
			"target":34962
		},
		{
			"buffer":0,
			"byteLength":5760,
			"byteOffset":169776,
			"target":34963
		},
		{
			"buffer":0,
			"byteLength":23808,
			"byteOffset":175536,
			"target":34962
		},
		{
			"buffer":0,
			"byteLength":23808,
			"byteOffset":199344,
			"target":34962
		},
		{
			"buffer":0,
			"byteLength":288,
			"byteOffset":223152,
			"target":34962
		},
		{
			"buffer":0,
			"byteLength":288,
			"byteOffset":223440,
			"target":34962
		},
		{
			"buffer":0,
			"byteLength":1440,
			"byteOffset":223728,
			"target":34962
		},
		{
			"buffer":0,
			"byteLength":1440,
			"byteOffset":225168,
			"target":34962
		},
		{
			"buffer":0,
			"byteLength":396,
			"byteOffset":226608,
			"target":34963
		}
	],
	"buffers":[
		{
			"byteLength":227004,
			"uri":"good_3.bin"
		}
	]
}
