{
	"asset":{
		"generator":"Khronos glTF Blender I/O v4.1.63",
		"version":"2.0"
	},
	"extensionsUsed":[
		"KHR_materials_transmission",
		"KHR_materials_emissive_strength"
	],
	"scene":0,
	"scenes":[
		{
			"extras":{
				"bgcol":[
					0.0,
					1.0,
					0.6119999885559082
				]
			},
			"name":"Scene",
			"nodes":[
				0,
				1,
				2,
				3,
				4,
				5,
				6,
				7,
				8,
				9,
				10,
				11,
				12,
				13,
				14,
				15,
				16,
				17,
				18,
				19,
				20,
				21,
				22
			]
		}
	],
	"nodes":[
		{
			"camera":0,
			"name":"Camera",
			"scale":[
				17.060699462890625,
				17.06072235107422,
				17.06072235107422
			],
			"translation":[
				-2.8581485748291016,
				16.02324104309082,
				42.184715270996094
			]
		},
		{
			"mesh":0,
			"name":"Cylinder",
			"rotation":[
				0,
				1,
				0,
				0
			],
			"scale":[
				-54.88347244262695,
				-0.23769120872020721,
				-54.88347244262695
			],
			"translation":[
				-1.1347949504852295,
				9.157283782958984,
				0.07009867578744888
			]
		},
		{
			"mesh":0,
			"name":"Cylinder.009",
			"rotation":[
				0,
				0.7071068286895752,
				-0.7071068286895752,
				0
			],
			"scale":[
				-12.901748657226562,
				-0.4795680642127991,
				-12.901748657226562
			],
			"translation":[
				-2.80741024017334,
				25.14824676513672,
				4.6196794509887695
			]
		},
		{
			"mesh":1,
			"name":"Sphere",
			"rotation":[
				0.04775729030370712,
				0.09986472129821777,
				0.36538800597190857,
				0.9242498874664307
			],
			"scale":[
				25.08159828186035,
				25.08159828186035,
				25.08159828186035
			],
			"translation":[
				10.139731407165527,
				30.721233367919922,
				-71.25880432128906
			]
		},
		{
			"mesh":1,
			"name":"Sphere.001",
			"rotation":[
				-0.3411586880683899,
				-0.5801509618759155,
				0.590194582939148,
				0.4457646310329437
			],
			"scale":[
				17.284862518310547,
				17.284862518310547,
				17.284862518310547
			],
			"translation":[
				-49.926612854003906,
				60.62535095214844,
				3.297517776489258
			]
		},
		{
			"mesh":2,
			"name":"Torus.005",
			"rotation":[
				0.7071068286895752,
				0,
				0,
				0.7071068286895752
			],
			"scale":[
				20.773399353027344,
				20.7734317779541,
				20.7734317779541
			],
			"translation":[
				-0.13484764099121094,
				35.42973709106445,
				-6.7051239013671875
			]
		},
		{
			"mesh":0,
			"name":"Cylinder.001",
			"rotation":[
				0,
				0.7071068286895752,
				-0.7071068286895752,
				0
			],
			"scale":[
				-8.029339790344238,
				-0.2984568178653717,
				-8.029339790344238
			],
			"translation":[
				11.80734634399414,
				20.96817398071289,
				2.092742919921875
			]
		},
		{
			"mesh":1,
			"name":"Sphere.002",
			"rotation":[
				-0.3411586582660675,
				-0.5801509618759155,
				0.590194582939148,
				0.4457646310329437
			],
			"scale":[
				3.618379831314087,
				3.618379831314087,
				3.618379831314087
			],
			"translation":[
				-28.356393814086914,
				60.62535095214844,
				-52.02195739746094
			]
		},
		{
			"mesh":3,
			"name":"Sphere.003",
			"rotation":[
				0.04775729030370712,
				0.09986471384763718,
				0.36538800597190857,
				0.9242499470710754
			],
			"scale":[
				11.85262393951416,
				11.852622985839844,
				11.852622985839844
			],
			"translation":[
				-21.756370544433594,
				18.846145629882812,
				13.29593276977539
			]
		},
		{
			"mesh":4,
			"name":"Sphere.005",
			"scale":[
				10.46685791015625,
				10.46685791015625,
				10.46685791015625
			],
			"translation":[
				-55.98971176147461,
				30.721242904663086,
				0.17891311645507812
			]
		},
		{
			"mesh":5,
			"name":"Sphere.006",
			"scale":[
				34.79790496826172,
				34.79790496826172,
				34.79790496826172
			],
			"translation":[
				-49.23488998413086,
				20.822874069213867,
				-79.01053619384766
			]
		},
		{
			"mesh":4,
			"name":"Sphere.004",
			"scale":[
				26.921375274658203,
				26.921375274658203,
				26.921375274658203
			],
			"translation":[
				60.030094146728516,
				18.67278480529785,
				-56.969573974609375
			]
		},
		{
			"mesh":6,
			"name":"custom5",
			"rotation":[
				-0.7071068286895752,
				0,
				0,
				0.7071068286895752
			],
			"scale":[
				11.167587280273438,
				11.167587280273438,
				11.167587280273438
			],
			"translation":[
				-2.8154563903808594,
				25.130878448486328,
				5.117249488830566
			]
		},
		{
			"mesh":7,
			"name":"custom6",
			"rotation":[
				-0.7071068286895752,
				0,
				0,
				0.7071068286895752
			],
			"scale":[
				6.9500932693481445,
				6.9500932693481445,
				6.9500932693481445
			],
			"translation":[
				11.802337646484375,
				20.95736312866211,
				2.402402877807617
			]
		},
		{
			"mesh":8,
			"name":"Cube.007",
			"rotation":[
				-0.38268351554870605,
				0.9238795042037964,
				0,
				2.889180272802605e-08
			],
			"scale":[
				0.25,
				66.70369720458984,
				0.25
			],
			"translation":[
				-23.670074462890625,
				34.027095794677734,
				-17.34762191772461
			]
		},
		{
			"mesh":8,
			"name":"Cube",
			"rotation":[
				-0.38268351554870605,
				0.9238795042037964,
				0,
				2.889180272802605e-08
			],
			"scale":[
				0.25,
				66.70369720458984,
				0.25
			],
			"translation":[
				-22.96296501159668,
				34.73419952392578,
				-17.34762191772461
			]
		},
		{
			"mesh":8,
			"name":"Cube.001",
			"rotation":[
				-0.38268351554870605,
				0.9238795042037964,
				0,
				2.889180272802605e-08
			],
			"scale":[
				0.25,
				66.70369720458984,
				0.25
			],
			"translation":[
				-21.548751831054688,
				36.148414611816406,
				-17.34762191772461
			]
		},
		{
			"mesh":8,
			"name":"Cube.002",
			"rotation":[
				-0.38268351554870605,
				0.9238795042037964,
				0,
				2.889180272802605e-08
			],
			"scale":[
				0.25,
				66.70369720458984,
				0.25
			],
			"translation":[
				-19.42742919921875,
				38.26972961425781,
				-17.34762191772461
			]
		},
		{
			"mesh":8,
			"name":"Cube.003",
			"rotation":[
				-0.38268351554870605,
				0.9238795042037964,
				0,
				2.889180272802605e-08
			],
			"scale":[
				0.25,
				66.70369720458984,
				0.25
			],
			"translation":[
				-16.599002838134766,
				41.098167419433594,
				-17.34762191772461
			]
		},
		{
			"mesh":8,
			"name":"Cube.004",
			"rotation":[
				-0.38268351554870605,
				0.9238795042037964,
				0,
				2.889180272802605e-08
			],
			"scale":[
				0.25,
				66.70369720458984,
				0.25
			],
			"translation":[
				-13.063468933105469,
				44.633697509765625,
				-17.34762191772461
			]
		},
		{
			"mesh":8,
			"name":"Cube.005",
			"rotation":[
				-0.38268351554870605,
				0.9238795042037964,
				0,
				2.889180272802605e-08
			],
			"scale":[
				0.25,
				66.70369720458984,
				0.25
			],
			"translation":[
				-8.113725662231445,
				49.58344650268555,
				-17.34762191772461
			]
		},
		{
			"mesh":8,
			"name":"Cube.006",
			"rotation":[
				-0.38268351554870605,
				0.9238795042037964,
				0,
				2.889180272802605e-08
			],
			"scale":[
				0.25,
				66.70369720458984,
				0.25
			],
			"translation":[
				-2.456869125366211,
				55.240299224853516,
				-17.34762191772461
			]
		},
		{
			"extras":{
				"babylonjs_GUID":"1e876d1f-225a-4592-8858-557103bad904",
				"MaxHandle":61
			},
			"mesh":9,
			"name":"Text002",
			"rotation":[
				0.7071067690849304,
				0,
				0,
				0.7071068286895752
			],
			"scale":[
				0.4120686948299408,
				0.4120686948299408,
				0.4120686948299408
			],
			"translation":[
				10.085975646972656,
				9.522223472595215,
				12.739218711853027
			]
		}
	],
	"cameras":[
		{
			"name":"Camera",
			"perspective":{
				"aspectRatio":1.7777777777777777,
				"yfov":1.1874993173003463,
				"zfar":100,
				"znear":0.10000000149011612
			},
			"type":"perspective"
		}
	],
	"materials":[
		{
			"doubleSided":true,
			"name":"f",
			"pbrMetallicRoughness":{
				"baseColorFactor":[
					0.021738912910223007,
					0.0019225932192057371,
					0.007443911395967007,
					1
				],
				"metallicFactor":0,
				"roughnessFactor":0.17357513308525085
			}
		},
		{
			"doubleSided":true,
			"extensions":{
				"KHR_materials_transmission":{
					"transmissionFactor":1
				}
			},
			"name":"refr",
			"pbrMetallicRoughness":{
				"baseColorFactor":[
					1,
					1,
					1,
					0.5647668242454529
				],
				"metallicFactor":0.3212435245513916,
				"roughnessFactor":0.23575130105018616
			}
		},
		{
			"doubleSided":true,
			"name":"refl",
			"pbrMetallicRoughness":{
				"baseColorFactor":[
					0.23567497730255127,
					0.23567497730255127,
					0.23567497730255127,
					1
				],
				"metallicFactor":0.9378238320350647,
				"roughnessFactor":0.04922279343008995
			}
		},
		{
			"doubleSided":true,
			"emissiveFactor":[
				1,
				0.023175472393631935,
				0.11494384706020355
			],
			"extensions":{
				"KHR_materials_emissive_strength":{
					"emissiveStrength":2
				}
			},
			"name":"e3.002",
			"pbrMetallicRoughness":{
				"baseColorFactor":[
					0.800000011920929,
					0.800000011920929,
					0.800000011920929,
					1
				],
				"metallicFactor":0,
				"roughnessFactor":0.5
			}
		},
		{
			"doubleSided":true,
			"emissiveFactor":[
				0.18311567604541779,
				1,
				0.7690503001213074
			],
			"extensions":{
				"KHR_materials_emissive_strength":{
					"emissiveStrength":1.5
				}
			},
			"name":"e1.001",
			"pbrMetallicRoughness":{
				"baseColorFactor":[
					0.800000011920929,
					0.800000011920929,
					0.800000011920929,
					1
				],
				"metallicFactor":0,
				"roughnessFactor":0.5
			}
		},
		{
			"doubleSided":true,
			"emissiveFactor":[
				0.8749956426956832,
				1,
				0.2222244567372565
			],
			"extensions":{
				"KHR_materials_emissive_strength":{
					"emissiveStrength":2.400707960128784
				}
			},
			"name":"e2.001",
			"pbrMetallicRoughness":{
				"baseColorFactor":[
					0.7002026438713074,
					0.8002356290817261,
					0.17783154547214508,
					1
				],
				"metallicFactor":0,
				"roughnessFactor":0.5
			}
		},
		{
			"doubleSided":true,
			"emissiveFactor":[
				1,
				1,
				1
			],
			"extensions":{
				"KHR_materials_emissive_strength":{
					"emissiveStrength":1.25
				}
			},
			"name":"e5.001",
			"pbrMetallicRoughness":{
				"baseColorFactor":[
					0.800000011920929,
					0.800000011920929,
					0.800000011920929,
					1
				],
				"metallicFactor":0,
				"roughnessFactor":0.5
			}
		}
	],
	"meshes":[
		{
			"extras":{
				"suby":32,
				"subx":64
			},
			"name":"Cylinder.009",
			"primitives":[
				{
					"attributes":{
						"POSITION":0,
						"NORMAL":1
					},
					"indices":2,
					"material":0
				}
			]
		},
		{
			"name":"Sphere",
			"primitives":[
				{
					"attributes":{
						"POSITION":3,
						"NORMAL":4
					},
					"indices":5,
					"material":0
				}
			]
		},
		{
			"extras":{
				"suby":64,
				"subx":64
			},
			"name":"Torus.007",
			"primitives":[
				{
					"attributes":{
						"POSITION":6,
						"NORMAL":7
					},
					"indices":8,
					"material":1
				}
			]
		},
		{
			"name":"Sphere.037",
			"primitives":[
				{
					"attributes":{
						"POSITION":9,
						"NORMAL":10
					},
					"indices":5,
					"material":2
				}
			]
		},
		{
			"name":"Sphere.005",
			"primitives":[
				{
					"attributes":{
						"POSITION":11,
						"NORMAL":12
					},
					"indices":13,
					"material":3
				}
			]
		},
		{
			"name":"Sphere.004",
			"primitives":[
				{
					"attributes":{
						"POSITION":14,
						"NORMAL":15
					},
					"indices":13,
					"material":4
				}
			]
		},
		{
			"name":"NurbsCircle.001",
			"primitives":[
				{
					"attributes":{
						"POSITION":16,
						"NORMAL":17
					},
					"indices":18,
					"material":3
				}
			]
		},
		{
			"name":"NurbsCircle.002",
			"primitives":[
				{
					"attributes":{
						"POSITION":19,
						"NORMAL":20
					},
					"indices":18,
					"material":5
				}
			]
		},
		{
			"name":"Cube.008",
			"primitives":[
				{
					"attributes":{
						"POSITION":21,
						"NORMAL":22
					},
					"indices":23,
					"material":5
				}
			]
		},
		{
			"extras":{
				"share":5
			},
			"name":"Mesh",
			"primitives":[
				{
					"attributes":{
						"POSITION":24,
						"NORMAL":25
					},
					"indices":26,
					"material":6
				}
			]
		}
	],
	"accessors":[
		{
			"bufferView":0,
			"componentType":5126,
			"count":192,
			"max":[
				1,
				1,
				1
			],
			"min":[
				-1,
				-1,
				-1
			],
			"type":"VEC3"
		},
		{
			"bufferView":1,
			"componentType":5126,
			"count":192,
			"type":"VEC3"
		},
		{
			"bufferView":2,
			"componentType":5123,
			"count":372,
			"type":"SCALAR"
		},
		{
			"bufferView":3,
			"componentType":5126,
			"count":1984,
			"max":[
				0.9999997019767761,
				1,
				0.9999993443489075
			],
			"min":[
				-0.9999990463256836,
				-1,
				-1
			],
			"type":"VEC3"
		},
		{
			"bufferView":4,
			"componentType":5126,
			"count":1984,
			"type":"VEC3"
		},
		{
			"bufferView":5,
			"componentType":5123,
			"count":2880,
			"type":"SCALAR"
		},
		{
			"bufferView":6,
			"componentType":5126,
			"count":2304,
			"max":[
				1.25,
				0.25,
				1.25
			],
			"min":[
				-1.25,
				-0.25,
				-1.25
			],
			"type":"VEC3"
		},
		{
			"bufferView":7,
			"componentType":5126,
			"count":2304,
			"type":"VEC3"
		},
		{
			"bufferView":8,
			"componentType":5123,
			"count":3456,
			"type":"SCALAR"
		},
		{
			"bufferView":9,
			"componentType":5126,
			"count":1984,
			"max":[
				0.9999997019767761,
				1,
				0.9999993443489075
			],
			"min":[
				-0.9999990463256836,
				-1,
				-1
			],
			"type":"VEC3"
		},
		{
			"bufferView":10,
			"componentType":5126,
			"count":1984,
			"type":"VEC3"
		},
		{
			"bufferView":11,
			"componentType":5126,
			"count":1984,
			"max":[
				0.9999997019767761,
				1,
				0.9999993443489075
			],
			"min":[
				-0.9999990463256836,
				-1,
				-1
			],
			"type":"VEC3"
		},
		{
			"bufferView":12,
			"componentType":5126,
			"count":1984,
			"type":"VEC3"
		},
		{
			"bufferView":13,
			"componentType":5123,
			"count":2880,
			"type":"SCALAR"
		},
		{
			"bufferView":14,
			"componentType":5126,
			"count":1984,
			"max":[
				0.9999997019767761,
				1,
				0.9999993443489075
			],
			"min":[
				-0.9999990463256836,
				-1,
				-1
			],
			"type":"VEC3"
		},
		{
			"bufferView":15,
			"componentType":5126,
			"count":1984,
			"type":"VEC3"
		},
		{
			"bufferView":16,
			"componentType":5126,
			"count":256,
			"max":[
				1.0099999904632568,
				0.010000002570450306,
				1.0099999904632568
			],
			"min":[
				-1.0099999904632568,
				-0.010000002570450306,
				-1.0099999904632568
			],
			"type":"VEC3"
		},
		{
			"bufferView":17,
			"componentType":5126,
			"count":256,
			"type":"VEC3"
		},
		{
			"bufferView":18,
			"componentType":5123,
			"count":1536,
			"type":"SCALAR"
		},
		{
			"bufferView":19,
			"componentType":5126,
			"count":256,
			"max":[
				1.0149999856948853,
				0.015000002458691597,
				1.0149999856948853
			],
			"min":[
				-1.0149999856948853,
				-0.015000003390014172,
				-1.0149999856948853
			],
			"type":"VEC3"
		},
		{
			"bufferView":20,
			"componentType":5126,
			"count":256,
			"type":"VEC3"
		},
		{
			"bufferView":21,
			"componentType":5126,
			"count":24,
			"max":[
				1,
				1,
				1
			],
			"min":[
				-1,
				-1,
				-1
			],
			"type":"VEC3"
		},
		{
			"bufferView":22,
			"componentType":5126,
			"count":24,
			"type":"VEC3"
		},
		{
			"bufferView":23,
			"componentType":5123,
			"count":36,
			"type":"SCALAR"
		},
		{
			"bufferView":24,
			"componentType":5126,
			"count":144,
			"max":[
				17.139732360839844,
				0.43308159708976746,
				0.4937499761581421
			],
			"min":[
				-17.139732360839844,
				-0.43301859498023987,
				-55.6938362121582
			],
			"type":"VEC3"
		},
		{
			"bufferView":25,
			"componentType":5126,
			"count":144,
			"type":"VEC3"
		},
		{
			"bufferView":26,
			"componentType":5123,
			"count":216,
			"type":"SCALAR"
		}
	],
	"bufferViews":[
		{
			"buffer":0,
			"byteLength":2304,
			"byteOffset":0,
			"target":34962
		},
		{
			"buffer":0,
			"byteLength":2304,
			"byteOffset":2304,
			"target":34962
		},
		{
			"buffer":0,
			"byteLength":744,
			"byteOffset":4608,
			"target":34963
		},
		{
			"buffer":0,
			"byteLength":23808,
			"byteOffset":5352,
			"target":34962
		},
		{
			"buffer":0,
			"byteLength":23808,
			"byteOffset":29160,
			"target":34962
		},
		{
			"buffer":0,
			"byteLength":5760,
			"byteOffset":52968,
			"target":34963
		},
		{
			"buffer":0,
			"byteLength":27648,
			"byteOffset":58728,
			"target":34962
		},
		{
			"buffer":0,
			"byteLength":27648,
			"byteOffset":86376,
			"target":34962
		},
		{
			"buffer":0,
			"byteLength":6912,
			"byteOffset":114024,
			"target":34963
		},
		{
			"buffer":0,
			"byteLength":23808,
			"byteOffset":120936,
			"target":34962
		},
		{
			"buffer":0,
			"byteLength":23808,
			"byteOffset":144744,
			"target":34962
		},
		{
			"buffer":0,
			"byteLength":23808,
			"byteOffset":168552,
			"target":34962
		},
		{
			"buffer":0,
			"byteLength":23808,
			"byteOffset":192360,
			"target":34962
		},
		{
			"buffer":0,
			"byteLength":5760,
			"byteOffset":216168,
			"target":34963
		},
		{
			"buffer":0,
			"byteLength":23808,
			"byteOffset":221928,
			"target":34962
		},
		{
			"buffer":0,
			"byteLength":23808,
			"byteOffset":245736,
			"target":34962
		},
		{
			"buffer":0,
			"byteLength":3072,
			"byteOffset":269544,
			"target":34962
		},
		{
			"buffer":0,
			"byteLength":3072,
			"byteOffset":272616,
			"target":34962
		},
		{
			"buffer":0,
			"byteLength":3072,
			"byteOffset":275688,
			"target":34963
		},
		{
			"buffer":0,
			"byteLength":3072,
			"byteOffset":278760,
			"target":34962
		},
		{
			"buffer":0,
			"byteLength":3072,
			"byteOffset":281832,
			"target":34962
		},
		{
			"buffer":0,
			"byteLength":288,
			"byteOffset":284904,
			"target":34962
		},
		{
			"buffer":0,
			"byteLength":288,
			"byteOffset":285192,
			"target":34962
		},
		{
			"buffer":0,
			"byteLength":72,
			"byteOffset":285480,
			"target":34963
		},
		{
			"buffer":0,
			"byteLength":1728,
			"byteOffset":285552,
			"target":34962
		},
		{
			"buffer":0,
			"byteLength":1728,
			"byteOffset":287280,
			"target":34962
		},
		{
			"buffer":0,
			"byteLength":432,
			"byteOffset":289008,
			"target":34963
		}
	],
	"buffers":[
		{
			"byteLength":289440,
			"uri":"good_6.bin"
		}
	]
}
