{
	"asset":{
		"generator":"Khronos glTF Blender I/O v4.1.63",
		"version":"2.0"
	},
	"extensionsUsed":[
		"KHR_materials_emissive_strength",
		"KHR_materials_transmission"
	],
	"scene":0,
	"scenes":[
		{
			"extras":{
				"bgcol":[
					0.0,
					0.05000000074505806,
					0.15000000596046448
				]
			},
			"name":"Scene",
			"nodes":[
				0,
				1,
				2,
				3,
				4,
				5,
				6,
				7,
				8,
				9,
				10,
				11,
				12,
				13,
				14,
				15,
				16,
				17,
				18,
				19,
				20,
				21,
				22,
				23,
				24,
				25,
				26,
				27,
				28,
				29,
				30,
				31,
				32,
				33,
				34,
				35,
				36
			]
		}
	],
	"nodes":[
		{
			"camera":0,
			"name":"Camera",
			"scale":[
				8.794428825378418,
				8.794427871704102,
				8.794427871704102
			],
			"translation":[
				0,
				11.895699501037598,
				39.58952331542969
			]
		},
		{
			"mesh":0,
			"name":"Cylinder",
			"rotation":[
				0,
				1,
				0,
				0
			],
			"scale":[
				-60.93345260620117,
				-0.26389268040657043,
				-60.93345260620117
			],
			"translation":[
				-1.1347949504852295,
				9.157283782958984,
				0.07009867578744888
			]
		},
		{
			"mesh":1,
			"name":"Cube",
			"rotation":[
				0,
				0,
				-0.3826834559440613,
				0.9238795638084412
			],
			"scale":[
				1.4745732545852661,
				10.702007293701172,
				1.4745732545852661
			],
			"translation":[
				-5.636520862579346,
				13.813909530639648,
				0
			]
		},
		{
			"mesh":1,
			"name":"Cube.001",
			"rotation":[
				0.3826834559440613,
				-0.9238795638084412,
				0,
				4.038405876372053e-08
			],
			"scale":[
				1.4745732545852661,
				10.702007293701172,
				1.4745732545852661
			],
			"translation":[
				9.498403549194336,
				15.899271011352539,
				0
			]
		},
		{
			"mesh":1,
			"name":"Cube.002",
			"rotation":[
				0,
				0,
				-0.3826834261417389,
				0.9238795638084412
			],
			"scale":[
				3.1361143589019775,
				22.760967254638672,
				3.1361143589019775
			],
			"translation":[
				-15.338379859924316,
				14.800819396972656,
				-1.6615413427352905
			]
		},
		{
			"mesh":1,
			"name":"Cube.003",
			"rotation":[
				0.3826834261417389,
				-0.9238795638084412,
				0,
				4.038405521100685e-08
			],
			"scale":[
				3.1361143589019775,
				22.760967254638672,
				3.1361143589019775
			],
			"translation":[
				16.850494384765625,
				19.23595428466797,
				-1.6615431308746338
			]
		},
		{
			"mesh":2,
			"name":"Cube.004",
			"rotation":[
				0,
				0,
				-0.3826834261417389,
				0.9238795638084412
			],
			"scale":[
				0.2227563112974167,
				14.801084518432617,
				0.5061658024787903
			],
			"translation":[
				-6.6625752449035645,
				18.875274658203125,
				-1.6615413427352905
			]
		},
		{
			"mesh":2,
			"name":"Cube.005",
			"rotation":[
				0,
				0,
				-0.9238795638084412,
				0.3826834261417389
			],
			"scale":[
				0.2227563112974167,
				14.801084518432617,
				0.5061658024787903
			],
			"translation":[
				12.65705680847168,
				18.875274658203125,
				-1.6615413427352905
			]
		},
		{
			"mesh":3,
			"name":"Cube.006",
			"rotation":[
				0,
				0,
				-0.3826834261417389,
				0.9238795638084412
			],
			"scale":[
				0.2227563112974167,
				14.801084518432617,
				0.5061658024787903
			],
			"translation":[
				-6.6625752449035645,
				10.597968101501465,
				-1.6615413427352905
			]
		},
		{
			"mesh":3,
			"name":"Cube.007",
			"rotation":[
				0,
				0,
				-0.9238795638084412,
				0.3826834261417389
			],
			"scale":[
				0.2227563112974167,
				14.801084518432617,
				0.5061658024787903
			],
			"translation":[
				12.65705680847168,
				10.597968101501465,
				-1.6615413427352905
			]
		},
		{
			"mesh":4,
			"name":"Sphere",
			"scale":[
				5.466464042663574,
				5.466464042663574,
				5.466464042663574
			],
			"translation":[
				-8.668384552001953,
				20.90073585510254,
				13.11912727355957
			]
		},
		{
			"mesh":5,
			"name":"Sphere.001",
			"scale":[
				8.916437149047852,
				8.916437149047852,
				8.916437149047852
			],
			"translation":[
				21.89171600341797,
				26.831764221191406,
				13.11912727355957
			]
		},
		{
			"mesh":6,
			"name":"Sphere.002",
			"scale":[
				20.123620986938477,
				20.123620986938477,
				20.123620986938477
			],
			"translation":[
				90.04541015625,
				5.296272277832031,
				-9.60781478881836
			]
		},
		{
			"mesh":6,
			"name":"Sphere.003",
			"scale":[
				80.44435119628906,
				80.44435119628906,
				80.44435119628906
			],
			"translation":[
				86.13548278808594,
				5.296273231506348,
				-129.33172607421875
			]
		},
		{
			"mesh":7,
			"name":"Sphere.004",
			"scale":[
				35.074920654296875,
				35.074920654296875,
				35.074920654296875
			],
			"translation":[
				126.05335235595703,
				56.11613082885742,
				-9.996454238891602
			]
		},
		{
			"mesh":6,
			"name":"Sphere.005",
			"scale":[
				66.138427734375,
				66.138427734375,
				66.138427734375
			],
			"translation":[
				-40.61534118652344,
				9.74179744720459,
				-192.78298950195312
			]
		},
		{
			"mesh":7,
			"name":"Sphere.006",
			"scale":[
				48.70770263671875,
				48.70770263671875,
				48.70770263671875
			],
			"translation":[
				-94.09220886230469,
				12.667062759399414,
				-62.26030349731445
			]
		},
		{
			"mesh":8,
			"name":"Sphere.007",
			"scale":[
				-90.58572387695312,
				-90.58572387695312,
				-90.58572387695312
			],
			"translation":[
				-204.75254821777344,
				74.38168334960938,
				-163.49368286132812
			]
		},
		{
			"mesh":9,
			"name":"Sphere.009",
			"scale":[
				194.49252319335938,
				194.49252319335938,
				194.49252319335938
			],
			"translation":[
				-3.1955795288085938,
				157.92001342773438,
				-416.9540710449219
			]
		},
		{
			"mesh":8,
			"name":"Sphere.008",
			"scale":[
				-80.80131530761719,
				-80.80131530761719,
				-80.80131530761719
			],
			"translation":[
				155.25013732910156,
				149.10113525390625,
				-179.2606964111328
			]
		},
		{
			"mesh":10,
			"name":"Sphere.010",
			"scale":[
				-183.49462890625,
				-183.49462890625,
				-183.49462890625
			],
			"translation":[
				437.81549072265625,
				-64.18814086914062,
				-327.1462707519531
			]
		},
		{
			"mesh":2,
			"name":"Cube.014",
			"scale":[
				2.3390626907348633,
				2.3390626907348633,
				2.3390626907348633
			],
			"translation":[
				-44.92182159423828,
				11.734037399291992,
				11.227672576904297
			]
		},
		{
			"mesh":2,
			"name":"Cube.011",
			"scale":[
				2.70927357673645,
				2.70927357673645,
				2.70927357673645
			],
			"translation":[
				-26.560983657836914,
				12.10424518585205,
				-17.636613845825195
			]
		},
		{
			"mesh":2,
			"name":"Cube.015",
			"scale":[
				2.70927357673645,
				2.70927357673645,
				2.70927357673645
			],
			"translation":[
				-6.985414505004883,
				24.613258361816406,
				-17.636613845825195
			]
		},
		{
			"mesh":2,
			"name":"Cube.018",
			"scale":[
				2.70927357673645,
				2.70927357673645,
				2.70927357673645
			],
			"translation":[
				24.31780433654785,
				17.036460876464844,
				-11.218180656433105
			]
		},
		{
			"mesh":2,
			"name":"Cube.021",
			"scale":[
				2.70927357673645,
				2.70927357673645,
				2.70927357673645
			],
			"translation":[
				45.7485237121582,
				12.457722663879395,
				-11.558971405029297
			]
		},
		{
			"mesh":3,
			"name":"Cube.013",
			"scale":[
				2.3390626907348633,
				2.3390626907348633,
				2.3390626907348633
			],
			"translation":[
				-35.56557083129883,
				11.734037399291992,
				11.227672576904297
			]
		},
		{
			"mesh":3,
			"name":"Cube.009",
			"scale":[
				2.70927357673645,
				2.70927357673645,
				2.70927357673645
			],
			"translation":[
				-31.97953224182129,
				12.10424518585205,
				-17.636613845825195
			]
		},
		{
			"mesh":3,
			"name":"Cube.010",
			"scale":[
				2.70927357673645,
				2.70927357673645,
				2.70927357673645
			],
			"translation":[
				-12.403963088989258,
				24.613258361816406,
				-17.636613845825195
			]
		},
		{
			"mesh":3,
			"name":"Cube.017",
			"scale":[
				2.70927357673645,
				2.70927357673645,
				2.70927357673645
			],
			"translation":[
				18.899255752563477,
				17.036460876464844,
				-11.218180656433105
			]
		},
		{
			"mesh":3,
			"name":"Cube.020",
			"scale":[
				2.70927357673645,
				2.70927357673645,
				2.70927357673645
			],
			"translation":[
				40.32997512817383,
				12.457722663879395,
				-11.558971405029297
			]
		},
		{
			"mesh":11,
			"name":"Cube.008",
			"scale":[
				2.3390626907348633,
				2.3390626907348633,
				2.3390626907348633
			],
			"translation":[
				-40.24369812011719,
				11.734037399291992,
				11.227672576904297
			]
		},
		{
			"mesh":11,
			"name":"Cube.012",
			"scale":[
				2.70927357673645,
				2.70927357673645,
				2.70927357673645
			],
			"translation":[
				-21.14243507385254,
				12.10424518585205,
				-17.636613845825195
			]
		},
		{
			"mesh":11,
			"name":"Cube.016",
			"scale":[
				2.70927357673645,
				2.70927357673645,
				2.70927357673645
			],
			"translation":[
				-1.5668659210205078,
				24.613258361816406,
				-17.636613845825195
			]
		},
		{
			"mesh":11,
			"name":"Cube.019",
			"scale":[
				2.70927357673645,
				2.70927357673645,
				2.70927357673645
			],
			"translation":[
				29.736352920532227,
				17.036460876464844,
				-11.218180656433105
			]
		},
		{
			"mesh":11,
			"name":"Cube.022",
			"scale":[
				2.70927357673645,
				2.70927357673645,
				2.70927357673645
			],
			"translation":[
				51.16707229614258,
				12.457722663879395,
				-11.558971405029297
			]
		},
		{
			"extras":{
				"babylonjs_GUID":"1e876d1f-225a-4592-8858-557103bad904",
				"MaxHandle":61
			},
			"mesh":12,
			"name":"Text002",
			"rotation":[
				0.7071068286895752,
				0,
				0,
				0.7071068286895752
			],
			"scale":[
				0.2990635931491852,
				0.2990635931491852,
				0.2990635931491852
			],
			"translation":[
				6.832592964172363,
				9.81299877166748,
				18.69295883178711
			]
		}
	],
	"cameras":[
		{
			"name":"Camera",
			"perspective":{
				"aspectRatio":1.7777777777777777,
				"yfov":1.1874993173003463,
				"zfar":100,
				"znear":0.10000000149011612
			},
			"type":"perspective"
		}
	],
	"materials":[
		{
			"doubleSided":true,
			"name":"f",
			"pbrMetallicRoughness":{
				"baseColorFactor":[
					0.0019775223918259144,
					0.0040383776649832726,
					0.003987903706729412,
					1
				],
				"metallicFactor":0,
				"roughnessFactor":0.17357513308525085
			}
		},
		{
			"doubleSided":true,
			"name":"b1",
			"pbrMetallicRoughness":{
				"baseColorFactor":[
					0.0006078383885324001,
					0.005333313252776861,
					0.01660333201289177,
					1
				],
				"metallicFactor":0,
				"roughnessFactor":0.5
			}
		},
		{
			"doubleSided":true,
			"emissiveFactor":[
				0.9774108529090881,
				1,
				0.04389041289687157
			],
			"extensions":{
				"KHR_materials_emissive_strength":{
					"emissiveStrength":1.5
				}
			},
			"name":"e2",
			"pbrMetallicRoughness":{
				"baseColorFactor":[
					0.800000011920929,
					0.800000011920929,
					0.800000011920929,
					1
				],
				"metallicFactor":0,
				"roughnessFactor":0.5
			}
		},
		{
			"doubleSided":true,
			"emissiveFactor":[
				1,
				0.01406938023865223,
				0.08389241248369217
			],
			"extensions":{
				"KHR_materials_emissive_strength":{
					"emissiveStrength":1.25
				}
			},
			"name":"e3",
			"pbrMetallicRoughness":{
				"baseColorFactor":[
					0.800000011920929,
					0.800000011920929,
					0.800000011920929,
					1
				],
				"metallicFactor":0,
				"roughnessFactor":0.5
			}
		},
		{
			"doubleSided":true,
			"extensions":{
				"KHR_materials_transmission":{
					"transmissionFactor":1
				}
			},
			"name":"refl",
			"pbrMetallicRoughness":{
				"baseColorFactor":[
					0.800000011920929,
					0.800000011920929,
					0.800000011920929,
					1
				],
				"roughnessFactor":0.0803108662366867
			}
		},
		{
			"doubleSided":true,
			"name":"refr",
			"pbrMetallicRoughness":{
				"roughnessFactor":0.028497397899627686
			}
		},
		{
			"doubleSided":true,
			"emissiveFactor":[
				0.2676868736743927,
				1,
				0.25033438205718994
			],
			"extensions":{
				"KHR_materials_emissive_strength":{
					"emissiveStrength":1.25
				}
			},
			"name":"e1.001",
			"pbrMetallicRoughness":{
				"baseColorFactor":[
					0.800000011920929,
					0.800000011920929,
					0.800000011920929,
					1
				],
				"metallicFactor":0,
				"roughnessFactor":0.5
			}
		},
		{
			"doubleSided":true,
			"emissiveFactor":[
				1,
				1,
				1
			],
			"extensions":{
				"KHR_materials_emissive_strength":{
					"emissiveStrength":1.25
				}
			},
			"name":"e4",
			"pbrMetallicRoughness":{
				"baseColorFactor":[
					0.800000011920929,
					0.800000011920929,
					0.800000011920929,
					1
				],
				"metallicFactor":0,
				"roughnessFactor":0.5
			}
		}
	],
	"meshes":[
		{
			"name":"Cylinder.001",
			"primitives":[
				{
					"attributes":{
						"POSITION":0,
						"NORMAL":1
					},
					"indices":2,
					"material":0
				}
			]
		},
		{
			"name":"Cube.004",
			"primitives":[
				{
					"attributes":{
						"POSITION":3,
						"NORMAL":4
					},
					"indices":5,
					"material":1
				}
			]
		},
		{
			"name":"Cube.001",
			"primitives":[
				{
					"attributes":{
						"POSITION":6,
						"NORMAL":7
					},
					"indices":5,
					"material":2
				}
			]
		},
		{
			"name":"Cube.007",
			"primitives":[
				{
					"attributes":{
						"POSITION":8,
						"NORMAL":9
					},
					"indices":5,
					"material":3
				}
			]
		},
		{
			"name":"Sphere",
			"primitives":[
				{
					"attributes":{
						"POSITION":10,
						"NORMAL":11
					},
					"indices":12,
					"material":4
				}
			]
		},
		{
			"name":"Sphere.001",
			"primitives":[
				{
					"attributes":{
						"POSITION":13,
						"NORMAL":14
					},
					"indices":12,
					"material":5
				}
			]
		},
		{
			"name":"Sphere.005",
			"primitives":[
				{
					"attributes":{
						"POSITION":15,
						"NORMAL":16
					},
					"indices":12,
					"material":0
				}
			]
		},
		{
			"name":"Sphere.007",
			"primitives":[
				{
					"attributes":{
						"POSITION":17,
						"NORMAL":18
					},
					"indices":12,
					"material":1
				}
			]
		},
		{
			"name":"Sphere.010",
			"primitives":[
				{
					"attributes":{
						"POSITION":19,
						"NORMAL":20
					},
					"indices":21,
					"material":2
				}
			]
		},
		{
			"name":"Sphere.009",
			"primitives":[
				{
					"attributes":{
						"POSITION":22,
						"NORMAL":23
					},
					"indices":21,
					"material":3
				}
			]
		},
		{
			"name":"Sphere.011",
			"primitives":[
				{
					"attributes":{
						"POSITION":24,
						"NORMAL":25
					},
					"indices":21,
					"material":6
				}
			]
		},
		{
			"name":"Cube.016",
			"primitives":[
				{
					"attributes":{
						"POSITION":26,
						"NORMAL":27
					},
					"indices":5,
					"material":6
				}
			]
		},
		{
			"extras":{
				"share":1
			},
			"name":"Mesh",
			"primitives":[
				{
					"attributes":{
						"POSITION":28,
						"NORMAL":29
					},
					"indices":30,
					"material":7
				}
			]
		}
	],
	"accessors":[
		{
			"bufferView":0,
			"componentType":5126,
			"count":192,
			"max":[
				1,
				1,
				1
			],
			"min":[
				-1,
				-1,
				-1
			],
			"type":"VEC3"
		},
		{
			"bufferView":1,
			"componentType":5126,
			"count":192,
			"type":"VEC3"
		},
		{
			"bufferView":2,
			"componentType":5123,
			"count":372,
			"type":"SCALAR"
		},
		{
			"bufferView":3,
			"componentType":5126,
			"count":24,
			"max":[
				1,
				1,
				1
			],
			"min":[
				-1,
				-1,
				-1
			],
			"type":"VEC3"
		},
		{
			"bufferView":4,
			"componentType":5126,
			"count":24,
			"type":"VEC3"
		},
		{
			"bufferView":5,
			"componentType":5123,
			"count":36,
			"type":"SCALAR"
		},
		{
			"bufferView":6,
			"componentType":5126,
			"count":24,
			"max":[
				1,
				1,
				1
			],
			"min":[
				-1,
				-1,
				-1
			],
			"type":"VEC3"
		},
		{
			"bufferView":7,
			"componentType":5126,
			"count":24,
			"type":"VEC3"
		},
		{
			"bufferView":8,
			"componentType":5126,
			"count":24,
			"max":[
				1,
				1,
				1
			],
			"min":[
				-1,
				-1,
				-1
			],
			"type":"VEC3"
		},
		{
			"bufferView":9,
			"componentType":5126,
			"count":24,
			"type":"VEC3"
		},
		{
			"bufferView":10,
			"componentType":5126,
			"count":1984,
			"max":[
				0.9999997019767761,
				1,
				0.9999993443489075
			],
			"min":[
				-0.9999990463256836,
				-1,
				-1
			],
			"type":"VEC3"
		},
		{
			"bufferView":11,
			"componentType":5126,
			"count":1984,
			"type":"VEC3"
		},
		{
			"bufferView":12,
			"componentType":5123,
			"count":2880,
			"type":"SCALAR"
		},
		{
			"bufferView":13,
			"componentType":5126,
			"count":1984,
			"max":[
				0.9999997019767761,
				1,
				0.9999993443489075
			],
			"min":[
				-0.9999990463256836,
				-1,
				-1
			],
			"type":"VEC3"
		},
		{
			"bufferView":14,
			"componentType":5126,
			"count":1984,
			"type":"VEC3"
		},
		{
			"bufferView":15,
			"componentType":5126,
			"count":1984,
			"max":[
				0.9999997019767761,
				1,
				0.9999993443489075
			],
			"min":[
				-0.9999990463256836,
				-1,
				-1
			],
			"type":"VEC3"
		},
		{
			"bufferView":16,
			"componentType":5126,
			"count":1984,
			"type":"VEC3"
		},
		{
			"bufferView":17,
			"componentType":5126,
			"count":1984,
			"max":[
				0.9999997019767761,
				1,
				0.9999993443489075
			],
			"min":[
				-0.9999990463256836,
				-1,
				-1
			],
			"type":"VEC3"
		},
		{
			"bufferView":18,
			"componentType":5126,
			"count":1984,
			"type":"VEC3"
		},
		{
			"bufferView":19,
			"componentType":5126,
			"count":1984,
			"max":[
				0.9999997019767761,
				1,
				0.9999993443489075
			],
			"min":[
				-0.9999990463256836,
				-1,
				-1
			],
			"type":"VEC3"
		},
		{
			"bufferView":20,
			"componentType":5126,
			"count":1984,
			"type":"VEC3"
		},
		{
			"bufferView":21,
			"componentType":5123,
			"count":2880,
			"type":"SCALAR"
		},
		{
			"bufferView":22,
			"componentType":5126,
			"count":1984,
			"max":[
				0.9999997019767761,
				1,
				0.9999993443489075
			],
			"min":[
				-0.9999990463256836,
				-1,
				-1
			],
			"type":"VEC3"
		},
		{
			"bufferView":23,
			"componentType":5126,
			"count":1984,
			"type":"VEC3"
		},
		{
			"bufferView":24,
			"componentType":5126,
			"count":1984,
			"max":[
				0.9999997019767761,
				1,
				0.9999993443489075
			],
			"min":[
				-0.9999990463256836,
				-1,
				-1
			],
			"type":"VEC3"
		},
		{
			"bufferView":25,
			"componentType":5126,
			"count":1984,
			"type":"VEC3"
		},
		{
			"bufferView":26,
			"componentType":5126,
			"count":24,
			"max":[
				1,
				1,
				1
			],
			"min":[
				-1,
				-1,
				-1
			],
			"type":"VEC3"
		},
		{
			"bufferView":27,
			"componentType":5126,
			"count":24,
			"type":"VEC3"
		},
		{
			"bufferView":28,
			"componentType":5126,
			"count":112,
			"max":[
				22.693782806396484,
				0.43309566378593445,
				1.49375319480896
			],
			"min":[
				-22.69378662109375,
				-0.4330127239227295,
				-56.68425369262695
			],
			"type":"VEC3"
		},
		{
			"bufferView":29,
			"componentType":5126,
			"count":112,
			"type":"VEC3"
		},
		{
			"bufferView":30,
			"componentType":5123,
			"count":180,
			"type":"SCALAR"
		}
	],
	"bufferViews":[
		{
			"buffer":0,
			"byteLength":2304,
			"byteOffset":0,
			"target":34962
		},
		{
			"buffer":0,
			"byteLength":2304,
			"byteOffset":2304,
			"target":34962
		},
		{
			"buffer":0,
			"byteLength":744,
			"byteOffset":4608,
			"target":34963
		},
		{
			"buffer":0,
			"byteLength":288,
			"byteOffset":5352,
			"target":34962
		},
		{
			"buffer":0,
			"byteLength":288,
			"byteOffset":5640,
			"target":34962
		},
		{
			"buffer":0,
			"byteLength":72,
			"byteOffset":5928,
			"target":34963
		},
		{
			"buffer":0,
			"byteLength":288,
			"byteOffset":6000,
			"target":34962
		},
		{
			"buffer":0,
			"byteLength":288,
			"byteOffset":6288,
			"target":34962
		},
		{
			"buffer":0,
			"byteLength":288,
			"byteOffset":6576,
			"target":34962
		},
		{
			"buffer":0,
			"byteLength":288,
			"byteOffset":6864,
			"target":34962
		},
		{
			"buffer":0,
			"byteLength":23808,
			"byteOffset":7152,
			"target":34962
		},
		{
			"buffer":0,
			"byteLength":23808,
			"byteOffset":30960,
			"target":34962
		},
		{
			"buffer":0,
			"byteLength":5760,
			"byteOffset":54768,
			"target":34963
		},
		{
			"buffer":0,
			"byteLength":23808,
			"byteOffset":60528,
			"target":34962
		},
		{
			"buffer":0,
			"byteLength":23808,
			"byteOffset":84336,
			"target":34962
		},
		{
			"buffer":0,
			"byteLength":23808,
			"byteOffset":108144,
			"target":34962
		},
		{
			"buffer":0,
			"byteLength":23808,
			"byteOffset":131952,
			"target":34962
		},
		{
			"buffer":0,
			"byteLength":23808,
			"byteOffset":155760,
			"target":34962
		},
		{
			"buffer":0,
			"byteLength":23808,
			"byteOffset":179568,
			"target":34962
		},
		{
			"buffer":0,
			"byteLength":23808,
			"byteOffset":203376,
			"target":34962
		},
		{
			"buffer":0,
			"byteLength":23808,
			"byteOffset":227184,
			"target":34962
		},
		{
			"buffer":0,
			"byteLength":5760,
			"byteOffset":250992,
			"target":34963
		},
		{
			"buffer":0,
			"byteLength":23808,
			"byteOffset":256752,
			"target":34962
		},
		{
			"buffer":0,
			"byteLength":23808,
			"byteOffset":280560,
			"target":34962
		},
		{
			"buffer":0,
			"byteLength":23808,
			"byteOffset":304368,
			"target":34962
		},
		{
			"buffer":0,
			"byteLength":23808,
			"byteOffset":328176,
			"target":34962
		},
		{
			"buffer":0,
			"byteLength":288,
			"byteOffset":351984,
			"target":34962
		},
		{
			"buffer":0,
			"byteLength":288,
			"byteOffset":352272,
			"target":34962
		},
		{
			"buffer":0,
			"byteLength":1344,
			"byteOffset":352560,
			"target":34962
		},
		{
			"buffer":0,
			"byteLength":1344,
			"byteOffset":353904,
			"target":34962
		},
		{
			"buffer":0,
			"byteLength":360,
			"byteOffset":355248,
			"target":34963
		}
	],
	"buffers":[
		{
			"byteLength":355608,
			"uri":"good_10.bin"
		}
	]
}
